<?xml version="1.0" standalone="no"?>
<!DOCTYPE svg PUBLIC "-//W3C//DTD SVG 20010904//EN"
 "http://www.w3.org/TR/2001/REC-SVG-20010904/DTD/svg10.dtd">
<svg version="1.0" xmlns="http://www.w3.org/2000/svg"
 width="1024.000000pt" height="1024.000000pt" viewBox="0 0 1024.000000 1024.000000"
 preserveAspectRatio="xMidYMid meet">
<metadata>
Created by potrace 1.14, written by Peter Selinger 2001-2017
</metadata>
<g transform="translate(0.000000,1024.000000) scale(0.100000,-0.100000)"
fill="#000000" stroke="none">
<path d="M3573 9244 c3 -6 -100 -10 -261 -11 -274 -2 -548 -10 -560 -16 -4 -2
-25 -4 -47 -6 -74 -4 -289 -41 -381 -66 -171 -45 -435 -163 -508 -227 -11 -10
-23 -18 -27 -18 -29 0 -253 -202 -350 -315 -23 -27 -47 -49 -52 -47 -4 1 -6
-2 -2 -7 3 -6 -13 -34 -35 -63 -22 -29 -54 -79 -71 -111 -17 -31 -34 -55 -39
-52 -4 3 -7 -1 -6 -8 2 -19 -87 -216 -96 -211 -4 3 -5 -1 -2 -9 5 -15 -29
-130 -37 -123 -2 2 -4 -8 -5 -24 -1 -15 -5 -36 -9 -46 -4 -11 -10 -37 -12 -59
-2 -22 -8 -41 -12 -43 -5 -1 -6 -14 -3 -29 3 -14 1 -23 -4 -20 -5 3 -8 -12 -8
-34 1 -21 -2 -39 -7 -39 -4 0 -6 -7 -3 -15 4 -8 3 -23 -1 -32 -6 -17 -16 -139
-17 -215 0 -21 -4 -35 -9 -32 -5 3 -9 0 -9 -5 0 -6 4 -11 8 -11 5 0 7 -19 5
-42 -2 -24 -3 -87 -3 -141 1 -78 -2 -97 -12 -91 -10 6 -10 4 -2 -7 16 -21 17
-72 1 -63 -9 6 -9 5 0 -7 12 -16 12 -176 0 -196 -5 -7 -4 -13 0 -13 5 0 8 -15
6 -32 -4 -53 -4 -2290 1 -2295 2 -3 0 -17 -4 -33 -4 -16 -6 -31 -2 -34 8 -8 8
-66 0 -66 -3 0 -5 -8 -3 -17 2 -10 4 -18 5 -18 1 0 2 -28 3 -63 1 -34 -2 -62
-6 -62 -5 0 -5 -6 -1 -12 12 -19 11 -118 -1 -118 -7 0 -7 -3 0 -8 14 -9 13
-95 0 -104 -7 -5 -7 -8 0 -8 6 0 10 -20 11 -45 0 -29 -3 -42 -10 -38 -8 5 -8
3 0 -8 12 -16 12 -29 0 -48 -6 -10 -5 -12 2 -7 7 4 12 2 12 -3 0 -6 -6 -11
-12 -11 -8 0 -9 -3 -3 -8 13 -9 13 -72 1 -91 -6 -10 -6 -12 2 -7 8 5 12 -1 12
-14 0 -13 -4 -19 -12 -14 -7 5 -8 3 -2 -7 13 -21 13 -109 0 -109 -8 0 -8 -2 0
-8 13 -9 13 -221 0 -241 -6 -9 -5 -12 1 -8 6 4 11 -15 12 -49 1 -43 -1 -54
-11 -48 -10 6 -10 5 -2 -7 7 -8 14 -87 18 -199 3 -102 8 -196 10 -210 3 -14 7
-54 11 -90 3 -36 8 -75 11 -87 3 -12 7 -39 9 -60 1 -21 5 -45 9 -54 4 -9 8
-32 9 -53 1 -20 6 -36 10 -36 4 0 7 -6 5 -13 -2 -11 31 -122 52 -172 4 -11 20
-48 34 -83 14 -35 23 -68 20 -74 -4 -6 -2 -8 3 -5 6 4 18 -10 27 -32 8 -22 20
-42 25 -45 5 -4 8 -15 6 -26 -3 -13 0 -18 7 -14 8 5 9 1 5 -10 -4 -10 -3 -15
3 -11 11 7 42 -49 32 -60 -4 -5 -1 -5 6 -1 7 4 15 0 19 -11 4 -10 15 -27 26
-38 10 -11 16 -28 13 -37 -2 -10 0 -16 5 -13 13 8 51 -34 43 -48 -4 -7 -4 -9
1 -5 4 4 26 -14 49 -39 22 -25 54 -59 69 -74 16 -16 26 -33 22 -39 -3 -5 0 -8
7 -5 7 3 36 -17 63 -43 28 -26 65 -58 83 -70 18 -13 30 -27 28 -31 -3 -4 4 -7
14 -8 11 -1 29 -11 42 -22 12 -12 27 -21 34 -21 7 0 16 -5 20 -12 5 -7 3 -8
-6 -3 -9 5 -11 4 -6 -4 4 -6 11 -9 16 -6 5 3 29 -7 52 -22 24 -15 52 -31 63
-34 11 -3 19 -11 18 -17 -2 -6 4 -9 11 -6 8 3 25 -1 38 -9 13 -8 44 -22 70
-32 27 -10 45 -22 41 -28 -3 -5 -1 -7 4 -4 15 9 115 -24 131 -43 8 -9 11 -9 6
-1 -5 10 1 12 27 6 36 -8 52 -23 42 -39 -3 -5 -1 -6 6 -2 6 4 9 12 5 17 -5 9
23 6 71 -9 11 -3 28 -6 38 -7 10 0 22 -7 27 -15 8 -12 10 -12 10 -1 0 9 7 11
23 7 34 -10 88 -17 125 -16 17 0 32 -4 32 -10 0 -5 5 -10 11 -10 5 0 7 5 3 12
-4 7 -3 8 5 4 10 -6 90 -14 191 -18 8 0 21 -6 29 -12 11 -8 13 -8 7 2 -5 8 1
12 19 12 14 0 24 -4 21 -8 -3 -5 1 -9 9 -9 8 0 12 3 10 7 -2 4 14 7 35 6 22 0
40 -5 40 -9 0 -5 5 -5 11 -1 17 10 89 11 89 2 0 -4 6 -7 13 -6 6 2 10 -4 9
-12 -2 -8 0 -11 5 -7 4 5 8 14 8 20 0 15 54 10 74 -6 12 -9 13 -9 7 1 -6 10
13 12 96 9 57 -2 110 -7 117 -12 9 -5 12 -4 8 2 -8 13 91 11 112 -1 9 -6 12
-5 8 1 -8 13 92 12 112 -1 9 -6 12 -5 8 1 -8 13 91 11 112 -1 9 -6 12 -5 8 1
-8 13 92 12 112 -1 9 -6 12 -5 8 1 -8 13 92 12 112 -1 10 -6 12 -6 7 2 -10 17
56 16 73 0 8 -7 11 -8 8 -2 -8 13 91 13 112 0 9 -6 12 -5 8 1 -8 12 172 11
192 -1 9 -6 12 -5 8 1 -8 13 92 12 112 -1 9 -6 12 -5 8 1 -8 13 92 12 112 -1
10 -6 12 -6 7 2 -10 17 56 16 73 -1 8 -6 11 -7 8 -1 -8 13 91 13 112 0 9 -6
12 -5 8 1 -8 12 213 11 232 -1 9 -6 12 -5 8 1 -8 13 92 12 112 -1 9 -6 12 -5
8 1 -8 13 92 12 112 -1 9 -6 12 -5 8 1 -8 13 91 11 112 -1 9 -6 12 -5 8 1 -8
13 92 12 112 -1 9 -6 12 -5 7 2 -10 16 78 9 101 -9 16 -13 17 -13 4 4 -12 15
-11 17 8 17 12 0 20 -4 16 -9 -3 -5 -1 -13 5 -16 6 -4 9 -1 8 7 -2 9 10 14 36
16 23 2 36 0 32 -7 -4 -5 -2 -13 4 -16 6 -4 9 -1 8 7 -2 9 10 14 36 16 23 2
36 0 32 -7 -4 -5 -2 -13 4 -16 6 -4 9 -1 8 7 -2 9 10 14 36 16 23 2 36 0 32
-7 -4 -5 -2 -13 4 -16 6 -4 9 -1 8 7 -4 17 71 21 91 5 10 -8 13 -8 8 -1 -8 14
91 13 112 0 9 -6 12 -5 8 1 -8 13 92 12 112 -1 9 -6 12 -5 8 1 -8 13 92 12
112 -1 9 -6 12 -5 8 1 -8 13 92 12 112 -1 10 -6 12 -6 7 2 -5 9 13 12 64 12
41 0 69 -4 65 -9 -3 -5 -1 -13 5 -16 6 -4 9 -1 8 7 -2 9 10 14 36 16 23 2 36
0 32 -7 -4 -5 -2 -13 4 -16 6 -4 9 -1 8 7 -2 10 12 13 55 13 31 0 57 3 57 7 0
3 9 4 20 1 11 -3 18 -9 15 -13 -3 -5 0 -12 6 -16 8 -4 9 -3 5 5 -11 17 14 23
119 25 60 1 95 -2 95 -9 0 -6 3 -7 8 0 4 6 16 12 26 13 18 3 19 2 5 -15 -12
-16 -12 -17 2 -6 9 7 20 9 24 5 5 -4 5 -1 1 6 -11 19 35 15 50 -5 13 -16 13
-16 8 -1 -4 12 0 17 13 16 10 0 46 2 81 5 48 5 61 3 55 -6 -5 -9 -3 -9 8 0 13
10 42 16 144 28 22 2 49 6 60 8 11 3 36 7 55 11 64 11 81 15 102 22 16 5 19 3
13 -7 -5 -8 -1 -7 11 3 10 9 33 18 49 21 17 3 42 10 57 16 15 6 35 8 45 4 11
-4 14 -3 9 5 -4 7 -2 13 3 13 21 3 57 16 85 30 14 8 17 7 11 -3 -3 -7 1 -4 10
7 9 11 17 19 18 17 1 -2 15 1 30 7 16 6 33 8 39 5 6 -4 8 -2 5 3 -7 10 20 28
36 25 4 -1 7 2 7 7 0 10 27 21 44 20 5 0 12 3 15 9 3 5 40 31 81 57 41 27 78
53 81 57 3 5 14 6 25 2 14 -4 15 -3 5 4 -10 8 -9 13 10 25 12 9 26 14 31 11 5
-3 7 0 6 8 -2 7 3 12 10 10 6 -1 12 5 12 14 0 10 5 14 16 10 9 -4 13 -2 8 5
-10 17 18 30 36 16 13 -11 13 -10 1 6 -12 16 -9 22 12 18 5 -1 6 3 3 8 -7 10
18 33 27 26 4 -3 5 -2 2 2 -6 8 77 99 88 95 5 -1 6 1 3 6 -3 5 8 23 24 41 17
18 35 41 41 52 9 17 13 18 27 7 15 -12 16 -11 4 4 -14 18 -7 43 9 33 5 -3 6 1
3 9 -3 9 -2 16 4 16 5 0 12 10 15 21 4 15 11 20 23 15 13 -5 14 -3 6 7 -8 9
-3 25 20 62 17 27 35 61 40 77 6 15 14 28 19 28 5 0 9 9 9 20 0 11 5 20 10 20
6 0 9 3 9 8 -4 24 2 42 13 36 7 -5 8 -3 4 5 -5 7 0 21 11 33 10 12 13 19 7 15
-8 -4 -8 3 0 28 6 18 14 31 18 29 4 -3 5 1 2 9 -3 8 2 22 11 31 9 9 11 16 5
16 -7 0 -8 6 -2 18 5 9 17 51 27 92 22 100 22 99 30 160 4 29 8 62 10 72 11
53 22 196 24 291 1 43 4 56 14 51 9 -6 9 -4 0 7 -17 17 -17 49 0 49 7 0 8 3 2
8 -16 11 -19 46 -3 36 10 -6 11 -5 1 7 -7 9 -9 20 -3 29 5 9 5 19 -1 26 -7 8
-6 14 1 19 6 3 7 11 4 17 -4 6 -7 32 -6 57 3 84 2 3755 0 3829 -2 39 -1 72 2
72 3 0 6 9 6 20 0 11 -3 20 -6 20 -3 0 -6 33 -6 73 -1 39 -4 126 -8 192 -4 66
-9 145 -11 175 -2 30 -6 62 -10 71 -3 9 -5 20 -4 25 1 5 0 16 -3 24 -14 40
-38 192 -32 202 4 7 3 8 -4 4 -7 -4 -14 7 -18 31 -4 21 -20 73 -35 116 -15 42
-25 77 -21 77 4 0 1 4 -6 9 -7 4 -15 14 -16 22 -6 33 -134 270 -156 289 -22
19 -78 108 -72 114 4 4 2 6 -4 4 -5 -2 -25 15 -44 37 -99 115 -293 280 -410
348 -113 65 -316 157 -347 157 -8 0 -11 5 -7 12 4 6 3 8 -4 4 -14 -8 -133 25
-126 35 3 5 -2 6 -10 3 -8 -3 -39 -1 -68 5 -74 16 -97 20 -138 26 -20 3 -45 7
-55 9 -11 2 -67 7 -125 10 -58 4 -122 9 -143 12 -63 8 -2659 18 -2990 11 -53
-1 -97 2 -97 6 0 5 -5 5 -11 2 -17 -11 -59 -13 -65 -3 -3 4 -11 5 -17 1 -19
-12 -367 -10 -367 2 0 7 -3 7 -8 0 -10 -15 -53 -16 -71 -2 -8 7 -12 7 -8 1 8
-13 -121 -13 -142 0 -9 6 -12 5 -8 0z"/>
<path d="M1253 1845 c0 -8 4 -12 9 -9 5 3 6 10 3 15 -9 13 -12 11 -12 -6z"/>
<path d="M1336 1742 c-3 -5 1 -9 9 -9 8 0 12 4 9 9 -3 4 -7 8 -9 8 -2 0 -6 -4
-9 -8z"/>
<path d="M1435 1611 c-3 -5 -2 -12 3 -15 5 -3 9 1 9 9 0 17 -3 19 -12 6z"/>
<path d="M1466 1558 c3 -5 10 -6 15 -3 13 9 11 12 -6 12 -8 0 -12 -4 -9 -9z"/>
<path d="M1615 1420 c3 -5 8 -10 11 -10 2 0 4 5 4 10 0 6 -5 10 -11 10 -5 0
-7 -4 -4 -10z"/>
<path d="M8575 1380 c3 -5 8 -10 11 -10 2 0 4 5 4 10 0 6 -5 10 -11 10 -5 0
-7 -4 -4 -10z"/>
<path d="M1646 1362 c-3 -5 1 -9 9 -9 8 0 12 4 9 9 -3 4 -7 8 -9 8 -2 0 -6 -4
-9 -8z"/>
<path d="M1719 1313 c-13 -16 -12 -17 4 -4 9 7 17 15 17 17 0 8 -8 3 -21 -13z"/>
<path d="M8546 1282 c-3 -5 1 -9 9 -9 8 0 12 4 9 9 -3 4 -7 8 -9 8 -2 0 -6 -4
-9 -8z"/>
<path d="M8370 1239 c0 -5 5 -7 10 -4 6 3 10 8 10 11 0 2 -4 4 -10 4 -5 0 -10
-5 -10 -11z"/>
<path d="M1854 1222 c4 -3 14 -7 22 -8 9 -1 13 0 10 4 -4 3 -14 7 -22 8 -9 1
-13 0 -10 -4z"/>
<path d="M8330 1219 c0 -5 5 -7 10 -4 6 3 10 8 10 11 0 2 -4 4 -10 4 -5 0 -10
-5 -10 -11z"/>
<path d="M8270 1199 c0 -5 5 -7 10 -4 6 3 10 8 10 11 0 2 -4 4 -10 4 -5 0 -10
-5 -10 -11z"/>
<path d="M1930 1180 c0 -5 5 -10 11 -10 5 0 7 5 4 10 -3 6 -8 10 -11 10 -2 0
-4 -4 -4 -10z"/>
<path d="M1976 1182 c-3 -5 1 -9 9 -9 8 0 12 4 9 9 -3 4 -7 8 -9 8 -2 0 -6 -4
-9 -8z"/>
<path d="M2030 1160 c0 -5 5 -10 11 -10 5 0 7 5 4 10 -3 6 -8 10 -11 10 -2 0
-4 -4 -4 -10z"/>
<path d="M2067 1159 c7 -7 15 -10 18 -7 3 3 -2 9 -12 12 -14 6 -15 5 -6 -5z"/>
<path d="M2113 1145 c4 -5 0 -16 -9 -26 -12 -14 -13 -18 -2 -25 7 -4 10 -3 5
1 -4 5 0 16 9 26 12 14 13 18 2 25 -7 4 -10 3 -5 -1z"/>
<path d="M8210 1139 c0 -5 5 -7 10 -4 6 3 10 8 10 11 0 2 -4 4 -10 4 -5 0 -10
-5 -10 -11z"/>
<path d="M8096 1127 c3 -10 9 -15 12 -12 3 3 0 11 -7 18 -10 9 -11 8 -5 -6z"/>
<path d="M8130 1119 c0 -5 5 -7 10 -4 6 3 10 8 10 11 0 2 -4 4 -10 4 -5 0 -10
-5 -10 -11z"/>
<path d="M2133 1105 c0 -8 4 -12 9 -9 5 3 6 10 3 15 -9 13 -12 11 -12 -6z"/>
<path d="M7959 1073 c-13 -16 -12 -17 4 -4 9 7 17 15 17 17 0 8 -8 3 -21 -13z"/>
<path d="M8106 1078 c3 -5 10 -6 15 -3 13 9 11 12 -6 12 -8 0 -12 -4 -9 -9z"/>
<path d="M2215 1060 c-3 -5 -1 -10 4 -10 6 0 11 5 11 10 0 6 -2 10 -4 10 -3 0
-8 -4 -11 -10z"/>
<path d="M7853 1045 c0 -8 4 -12 9 -9 5 3 6 10 3 15 -9 13 -12 11 -12 -6z"/>
<path d="M7794 1042 c4 -3 14 -7 22 -8 9 -1 13 0 10 4 -4 3 -14 7 -22 8 -9 1
-13 0 -10 -4z"/>
<path d="M7885 1040 c-3 -6 1 -7 9 -4 18 7 21 14 7 14 -6 0 -13 -4 -16 -10z"/>
<path d="M7540 1006 c0 -2 8 -10 18 -17 15 -13 16 -12 3 4 -13 16 -21 21 -21
13z"/>
<path d="M7615 991 c-3 -5 -2 -12 3 -15 5 -3 9 1 9 9 0 17 -3 19 -12 6z"/>
<path d="M2490 980 c0 -5 5 -10 11 -10 5 0 7 5 4 10 -3 6 -8 10 -11 10 -2 0
-4 -4 -4 -10z"/>
<path d="M2840 980 c-9 -6 -10 -10 -3 -10 6 0 15 5 18 10 8 12 4 12 -15 0z"/>
<path d="M3227 979 c7 -7 15 -10 18 -7 3 3 -2 9 -12 12 -14 6 -15 5 -6 -5z"/>
<path d="M7773 969 c-2 -23 3 -25 10 -4 4 8 3 16 -1 19 -4 3 -9 -4 -9 -15z"/>
<path d="M4333 965 c0 -8 4 -12 9 -9 5 3 6 10 3 15 -9 13 -12 11 -12 -6z"/>
<path d="M4973 965 c0 -8 4 -12 9 -9 5 3 6 10 3 15 -9 13 -12 11 -12 -6z"/>
<path d="M2616 962 c-3 -5 1 -9 9 -9 8 0 12 4 9 9 -3 4 -7 8 -9 8 -2 0 -6 -4
-9 -8z"/>
<path d="M4106 958 c3 -5 10 -6 15 -3 13 9 11 12 -6 12 -8 0 -12 -4 -9 -9z"/>
<path d="M4150 961 c0 -6 4 -13 10 -16 6 -3 7 1 4 9 -7 18 -14 21 -14 7z"/>
<path d="M4746 958 c3 -5 10 -6 15 -3 13 9 11 12 -6 12 -8 0 -12 -4 -9 -9z"/>
<path d="M4790 961 c0 -6 4 -13 10 -16 6 -3 7 1 4 9 -7 18 -14 21 -14 7z"/>
<path d="M7286 958 c3 -5 10 -6 15 -3 13 9 11 12 -6 12 -8 0 -12 -4 -9 -9z"/>
<path d="M2816 942 c-3 -5 1 -9 9 -9 8 0 12 4 9 9 -3 4 -7 8 -9 8 -2 0 -6 -4
-9 -8z"/>
<path d="M3135 940 c-3 -5 -1 -10 4 -10 6 0 11 5 11 10 0 6 -2 10 -4 10 -3 0
-8 -4 -11 -10z"/>
<path d="M3975 940 c3 -5 8 -10 11 -10 2 0 4 5 4 10 0 6 -5 10 -11 10 -5 0 -7
-4 -4 -10z"/>
<path d="M4010 939 c0 -5 5 -7 10 -4 6 3 10 8 10 11 0 2 -4 4 -10 4 -5 0 -10
-5 -10 -11z"/>
<path d="M4615 940 c3 -5 8 -10 11 -10 2 0 4 5 4 10 0 6 -5 10 -11 10 -5 0 -7
-4 -4 -10z"/>
<path d="M4650 939 c0 -5 5 -7 10 -4 6 3 10 8 10 11 0 2 -4 4 -10 4 -5 0 -10
-5 -10 -11z"/>
<path d="M5130 939 c0 -5 5 -7 10 -4 6 3 10 8 10 11 0 2 -4 4 -10 4 -5 0 -10
-5 -10 -11z"/>
<path d="M6090 939 c0 -5 5 -7 10 -4 6 3 10 8 10 11 0 2 -4 4 -10 4 -5 0 -10
-5 -10 -11z"/>
<path d="M7215 940 c3 -5 8 -10 11 -10 2 0 4 5 4 10 0 6 -5 10 -11 10 -5 0 -7
-4 -4 -10z"/>
<path d="M7415 940 c3 -5 8 -10 11 -10 2 0 4 5 4 10 0 6 -5 10 -11 10 -5 0 -7
-4 -4 -10z"/>
<path d="M7540 940 c8 -5 20 -10 25 -10 6 0 3 5 -5 10 -8 5 -19 10 -25 10 -5
0 -3 -5 5 -10z"/>
<path d="M7595 941 c-3 -5 -2 -12 3 -15 5 -3 9 1 9 9 0 17 -3 19 -12 6z"/>
<path d="M7313 925 c0 -8 4 -12 9 -9 5 3 6 10 3 15 -9 13 -12 11 -12 -6z"/>
<path d="M3246 922 c-3 -5 1 -9 9 -9 8 0 12 4 9 9 -3 4 -7 8 -9 8 -2 0 -6 -4
-9 -8z"/>
<path d="M3566 922 c-3 -5 1 -9 9 -9 8 0 12 4 9 9 -3 4 -7 8 -9 8 -2 0 -6 -4
-9 -8z"/>
<path d="M5230 919 c0 -5 5 -7 10 -4 6 3 10 8 10 11 0 2 -4 4 -10 4 -5 0 -10
-5 -10 -11z"/>
<path d="M5456 922 c-3 -5 1 -9 9 -9 8 0 12 4 9 9 -3 4 -7 8 -9 8 -2 0 -6 -4
-9 -8z"/>
<path d="M3156 878 c3 -5 10 -6 15 -3 13 9 11 12 -6 12 -8 0 -12 -4 -9 -9z"/>
<path d="M4233 835 c0 -8 4 -12 9 -9 5 3 6 10 3 15 -9 13 -12 11 -12 -6z"/>
<path d="M4873 835 c0 -8 4 -12 9 -9 5 3 6 10 3 15 -9 13 -12 11 -12 -6z"/>
<path d="M6473 835 c0 -8 4 -12 9 -9 5 3 6 10 3 15 -9 13 -12 11 -12 -6z"/>
</g>
</svg>
