<?xml version="1.0" standalone="no"?>
<!DOCTYPE svg PUBLIC "-//W3C//DTD SVG 20010904//EN"
 "http://www.w3.org/TR/2001/REC-SVG-20010904/DTD/svg10.dtd">
<svg version="1.0" xmlns="http://www.w3.org/2000/svg"
 width="1024.000000pt" height="1024.000000pt" viewBox="0 0 1024.000000 1024.000000"
 preserveAspectRatio="xMidYMid meet">
<metadata>
Created by potrace 1.14, written by Peter Selinger 2001-2017
</metadata>
<g transform="translate(0.000000,1024.000000) scale(0.100000,-0.100000)"
fill="#000000" stroke="none">
<path d="M2995 8990 c-415 -14 -605 -50 -848 -159 -326 -146 -598 -421 -742
-750 -87 -197 -118 -330 -147 -621 -15 -163 -24 -4199 -9 -4520 14 -301 40
-481 90 -625 21 -60 41 -118 46 -127 7 -17 -2 -18 -115 -18 -143 0 -138 17
-50 -165 238 -493 677 -829 1230 -939 185 -37 281 -45 653 -57 464 -15 4193
-6 4367 10 556 51 925 212 1246 542 147 152 247 301 339 504 l45 100 -121 3
c-109 2 -121 4 -116 20 3 9 19 57 37 106 36 100 62 228 82 396 19 165 19 4648
0 4820 -45 408 -145 665 -359 921 -179 216 -416 374 -701 469 -118 39 -237 60
-452 81 -135 14 -4116 21 -4475 9z m2075 -795 c37 -38 73 -50 139 -46 30 1 49
-3 62 -15 18 -16 26 -16 82 -5 34 7 87 12 117 12 30 -1 98 -2 150 -2 286 -3
327 -6 385 -23 92 -27 136 -42 185 -63 40 -17 122 -39 217 -58 37 -7 65 -39
56 -63 -5 -12 -8 -12 -14 5 -6 16 -14 19 -38 15 -26 -3 -29 -7 -20 -18 6 -8
20 -14 30 -14 11 0 28 -9 38 -19 21 -21 82 -22 156 -2 22 6 112 14 200 17 137
6 166 4 200 -11 22 -9 68 -25 102 -36 43 -14 70 -29 92 -54 17 -20 31 -38 31
-40 0 -6 -32 6 -48 18 -7 5 -15 7 -18 4 -3 -3 -21 1 -40 9 -19 8 -39 12 -44 9
-6 -4 -14 5 -20 19 -11 31 -55 41 -142 32 -34 -4 -59 -3 -54 1 4 4 15 8 23 8
9 0 18 6 20 12 4 10 -14 12 -71 10 -42 -1 -76 -5 -76 -9 0 -5 5 -8 11 -8 15 0
34 -22 34 -40 0 -12 15 -14 84 -12 46 2 91 0 100 -4 9 -4 22 -8 28 -10 7 -1
19 -9 28 -17 8 -9 29 -18 47 -22 18 -3 45 -11 60 -17 19 -7 41 -6 80 5 88 24
201 -2 228 -52 5 -11 10 -43 10 -71 0 -46 -2 -51 -19 -45 -11 3 -26 -1 -35
-10 -12 -12 -16 -13 -17 -3 -1 7 -2 18 -4 23 -1 6 -3 15 -3 22 -2 8 -12 6 -34
-5 -65 -33 -308 -17 -308 19 0 5 -10 9 -23 9 -13 0 -28 5 -33 10 -6 6 -24 12
-41 14 -17 3 -40 9 -51 15 -12 6 -28 11 -37 11 -14 0 -13 -4 6 -19 23 -19 26
-25 35 -104 6 -50 -5 -77 -33 -77 -8 0 -21 -7 -30 -15 -12 -12 -12 -19 -3 -30
16 -19 37 -9 44 21 7 27 49 42 69 25 7 -5 29 -8 48 -5 26 4 41 0 62 -16 16
-13 24 -26 19 -29 -6 -3 -12 -15 -14 -26 -3 -18 3 -20 47 -21 39 -2 53 -7 67
-25 9 -13 24 -31 33 -39 9 -8 37 -34 61 -57 24 -24 46 -43 49 -43 3 0 5 10 5
23 l1 22 20 -24 20 -25 -1 50 c0 27 0 60 0 74 0 14 -1 39 -2 55 -7 78 90 -16
128 -125 9 -25 24 -64 35 -88 32 -71 22 -110 -20 -83 -12 8 -13 14 -3 35 6 14
7 26 2 26 -5 0 -11 -9 -15 -19 -17 -53 -122 -106 -163 -82 -15 9 -14 10 9 11
14 0 33 6 43 13 16 12 13 13 -23 11 -40 -2 -41 -1 -41 31 0 29 -5 36 -45 55
-24 12 -48 19 -53 16 -16 -10 -124 -9 -130 1 -4 5 -45 10 -91 10 -56 0 -86 4
-91 13 -4 7 -13 9 -20 5 -8 -5 -11 -4 -7 2 4 6 0 14 -9 17 -8 3 -12 2 -9 -4
10 -16 -11 -12 -25 5 -7 8 -20 15 -29 15 -9 0 -28 8 -41 17 -14 10 -29 18 -35
18 -20 2 -50 19 -68 40 -12 13 -11 8 3 -13 12 -18 37 -43 56 -55 45 -29 44
-42 -1 -17 -20 11 -42 20 -51 20 -9 0 -14 7 -12 17 2 13 -4 18 -26 18 -17 1
-32 7 -34 15 -3 8 -23 32 -45 53 -38 37 -42 39 -95 35 -41 -2 -57 1 -60 11 -3
10 1 12 19 8 21 -5 22 -4 7 7 -15 11 -14 14 12 36 27 22 33 49 8 34 -12 -8
-156 -25 -198 -24 -14 0 -27 5 -29 11 -2 8 -5 8 -10 0 -9 -14 -100 3 -143 26
-16 8 -28 12 -28 10 0 -14 31 -61 56 -84 l29 -28 -23 -3 c-39 -6 -121 35 -105
52 4 3 -3 6 -13 6 -11 0 -24 4 -29 9 -6 5 -28 18 -50 30 -22 12 -32 21 -22 21
17 0 22 11 10 23 -3 4 -12 2 -19 -4 -9 -7 -18 -4 -33 12 -12 13 -21 26 -21 30
0 4 -16 10 -35 13 -19 4 -35 11 -35 16 0 13 17 13 25 0 3 -5 14 -10 23 -9 13
0 14 2 3 6 -8 3 -24 16 -35 28 -16 17 -25 20 -37 12 -11 -7 -24 -5 -45 6 -20
11 -23 16 -12 17 20 0 20 32 -1 53 -10 9 -11 8 -6 -5 5 -11 2 -18 -5 -18 -8 0
-11 9 -8 24 4 18 0 26 -14 29 -10 3 -18 14 -18 26 0 12 -6 21 -15 21 -8 0 -15
8 -15 19 0 24 -25 45 -42 35 -7 -4 -5 2 6 14 12 14 16 27 11 39 -5 10 -7 23
-6 30 1 8 -9 8 -40 -1 -38 -11 -63 -32 -72 -59 -2 -6 -14 -3 -29 7 -20 13 -27
14 -30 4 -4 -10 -11 -8 -31 5 -30 19 -57 22 -57 6 0 -17 27 -39 47 -39 11 0
28 -7 39 -15 10 -8 29 -15 41 -15 16 0 28 -11 42 -37 10 -21 31 -51 45 -66 14
-15 26 -32 26 -37 0 -5 17 -12 38 -15 60 -9 106 -38 118 -76 10 -29 20 -37 67
-54 31 -11 73 -36 94 -56 21 -20 59 -46 84 -58 25 -11 55 -30 67 -41 11 -11
27 -17 35 -14 8 3 18 1 21 -4 3 -6 15 -8 25 -5 10 3 22 0 25 -6 10 -15 62 -14
78 2 16 15 78 40 98 39 70 -4 97 -8 88 -13 -6 -4 0 -10 13 -14 13 -4 30 -12
38 -19 7 -6 19 -11 25 -11 22 -2 66 -25 66 -35 0 -5 7 -10 15 -10 22 0 63 -71
67 -116 2 -32 0 -39 -17 -42 -16 -2 -17 -1 -5 7 11 8 12 13 3 22 -6 6 -9 18
-6 25 4 10 -3 13 -26 10 -21 -2 -30 1 -28 8 2 6 12 10 21 10 16 -2 16 0 -1 18
-21 23 -53 42 -60 35 -2 -3 2 -18 10 -34 18 -34 30 -104 28 -156 -1 -29 -8
-46 -31 -67 -17 -16 -33 -24 -36 -18 -4 6 -2 13 3 17 5 3 12 14 16 24 7 19
-12 24 -30 6 -8 -8 -20 -9 -43 -1 -20 8 -29 8 -24 1 7 -11 -26 -40 -38 -33 -4
3 -22 -1 -40 -9 -18 -8 -42 -18 -53 -22 -19 -6 -18 -5 2 14 12 12 25 21 29 21
16 0 63 43 58 52 -4 7 -2 8 4 4 7 -4 12 -2 12 4 0 7 7 9 17 6 10 -4 14 -4 10
0 -3 4 2 15 13 24 12 10 18 24 14 33 -6 16 28 42 39 30 4 -3 2 9 -3 27 -15 54
-70 109 -107 110 -33 0 -28 -16 12 -42 19 -13 35 -26 35 -30 0 -4 -27 10 -60
31 -74 48 -103 56 -133 36 -13 -8 -27 -12 -30 -8 -4 3 -7 1 -7 -5 0 -7 13 -12
29 -12 17 0 32 -4 35 -9 3 -5 -10 -9 -30 -9 -51 0 -154 -24 -155 -37 -5 -49
-3 -112 4 -108 12 7 8 -57 -8 -124 -14 -59 -13 -65 7 -118 11 -30 24 -55 27
-55 11 0 6 43 -8 68 -7 13 -10 28 -8 35 2 7 11 -2 20 -19 20 -39 79 -92 112
-100 32 -8 93 3 123 22 12 8 27 12 32 9 18 -11 10 -32 -17 -45 -34 -16 -103
-30 -103 -21 0 4 -17 7 -38 7 -21 0 -52 8 -70 16 -31 16 -31 16 -22 -3 6 -10
24 -26 40 -34 20 -10 30 -23 29 -38 0 -12 1 -31 3 -42 4 -29 -34 -31 -76 -6
-18 12 -40 21 -48 21 -20 0 -52 36 -43 49 3 6 0 11 -9 11 -8 0 -20 16 -26 38
-7 20 -19 48 -27 61 -10 16 -12 26 -4 30 6 4 2 12 -11 20 -18 11 -20 11 -16
-1 3 -8 -1 -23 -9 -33 -12 -17 -15 -18 -23 -5 -5 8 -5 17 -1 20 5 3 7 17 5 32
-1 15 4 32 12 39 7 6 11 16 7 23 -5 8 -3 8 8 0 11 -9 17 -9 26 1 6 7 9 15 6
19 -3 3 0 12 7 21 10 12 9 15 -5 15 -14 0 -11 6 13 30 26 25 29 30 13 30 -10
0 -35 -18 -55 -40 -20 -22 -41 -40 -47 -40 -8 0 -7 5 1 15 7 9 10 18 6 22 -3
3 -6 1 -6 -6 0 -6 -8 -11 -17 -9 -11 2 -17 -2 -15 -10 2 -10 -2 -11 -15 -4
-12 7 -27 5 -52 -9 l-36 -19 -29 29 c-25 25 -27 32 -16 45 16 20 3 21 -16 1
-19 -18 -35 -20 -30 -2 3 6 7 25 10 40 4 16 11 25 17 21 6 -4 9 1 7 12 -1 12
12 32 36 54 21 19 51 47 66 62 15 15 30 26 32 25 2 -1 0 2 -4 7 -4 5 -35 -6
-69 -24 -51 -26 -68 -30 -98 -24 -20 4 -43 7 -51 6 -10 -1 -11 0 -2 4 17 8 15
24 -3 24 -8 0 -15 -6 -15 -14 0 -9 -7 -12 -19 -9 -10 3 -22 0 -25 -6 -4 -6
-13 -11 -19 -11 -7 0 -6 4 3 10 9 6 10 10 3 10 -6 0 -15 -4 -18 -10 -3 -5 -18
-10 -33 -10 -21 0 -24 -2 -12 -10 13 -8 12 -10 -3 -10 -21 0 -41 -18 -43 -37
-3 -34 -4 -35 -19 -23 -9 7 -18 10 -22 6 -3 -3 -1 -6 6 -6 7 0 9 -4 6 -10 -3
-5 -15 -10 -26 -10 -10 0 -19 -4 -19 -9 0 -5 -11 -12 -24 -15 -17 -4 -25 -15
-30 -39 -3 -18 -15 -39 -26 -47 -11 -8 -20 -20 -20 -26 0 -12 44 -36 90 -49
42 -12 84 -42 102 -73 21 -35 14 -48 -13 -21 -10 10 -31 19 -46 18 -27 0 -27
-1 -6 -11 12 -6 25 -18 28 -26 5 -13 3 -13 -13 1 -10 9 -26 17 -36 17 -9 0
-14 5 -11 10 3 6 -1 10 -9 11 -71 3 -105 0 -126 -11 -14 -7 -26 -13 -27 -12
-2 1 -10 2 -18 2 -10 0 -12 -6 -8 -17 6 -16 5 -16 -10 -4 -15 12 -17 12 -11
-3 3 -9 16 -16 28 -16 20 -1 56 -21 56 -33 0 -2 -10 -5 -22 -6 -47 -2 -68 -5
-68 -12 0 -4 -10 -10 -22 -13 -27 -7 -122 -75 -115 -82 3 -3 19 2 36 10 37 20
75 20 90 2 9 -11 8 -17 -4 -29 -23 -24 -19 -26 38 -19 102 12 205 8 222 -9 15
-15 13 -17 -25 -23 -30 -5 -52 -18 -85 -51 -25 -24 -45 -51 -45 -59 0 -15 -40
-44 -40 -29 0 4 -5 1 -10 -7 -8 -12 -12 -13 -19 -2 -7 12 -14 11 -39 -2 -17
-9 -35 -16 -40 -16 -5 0 -33 -22 -61 -50 -28 -27 -54 -50 -57 -50 -8 0 7 63
18 78 6 6 8 12 5 12 -3 0 -1 14 4 30 6 17 15 30 20 30 5 0 9 6 9 14 0 8 15 27
33 42 30 25 27 26 -20 7 -7 -3 -13 -1 -13 5 0 6 -10 8 -22 5 -19 -4 -20 -3 -8
6 8 6 11 11 5 11 -5 0 -3 5 5 11 13 9 12 10 -2 5 -10 -3 -24 -8 -31 -11 -7 -3
-24 3 -36 14 -13 12 -28 18 -33 15 -12 -8 -39 16 -32 28 4 6 -3 5 -15 -1 -11
-7 -21 -17 -21 -23 0 -7 -4 -7 -14 1 -11 9 -15 9 -19 -1 -3 -10 -9 -9 -23 5
-16 15 -16 17 -2 17 30 0 28 17 -2 18 -20 0 -31 -5 -35 -19 -9 -26 -25 -24
-26 4 -6 92 27 180 89 239 20 19 71 50 112 69 93 42 122 65 81 65 -11 0 -17
-4 -15 -8 3 -4 0 -8 -5 -8 -6 0 -11 7 -11 16 0 8 -4 12 -10 9 -15 -9 -12 19 5
41 20 27 18 58 -6 79 -20 19 -20 19 -9 -10 8 -20 8 -30 0 -35 -6 -4 -8 -15 -4
-26 5 -15 3 -15 -10 4 -23 29 -35 28 -75 -9 -18 -16 -40 -28 -47 -25 -7 3 -21
-5 -31 -17 -10 -12 -29 -31 -42 -42 l-24 -20 12 23 c16 31 -5 30 -49 -3 -47
-35 -74 -32 -32 4 40 35 32 46 -16 21 -27 -15 -38 -17 -43 -8 -6 9 -12 8 -26
-4 -24 -20 -77 -30 -91 -16 -14 14 -62 20 -62 7 0 -8 15 -13 33 -10 5 1 6 -3
2 -9 -4 -7 -12 -7 -25 0 -28 15 -38 12 -16 -5 18 -14 17 -14 -10 -14 -16 1
-72 -1 -124 -4 -66 -4 -89 -2 -76 5 10 5 29 8 42 5 13 -2 24 -1 24 3 0 4 17
15 38 24 20 9 54 27 76 40 52 32 29 44 -33 17 -104 -44 -251 -49 -305 -9 -27
20 -30 20 -42 3 -7 -9 -11 -22 -8 -28 6 -17 -62 -61 -78 -51 -7 4 -20 9 -29 9
-14 1 -15 -3 -8 -21 11 -30 -1 -36 -23 -13 -12 12 -13 19 -5 23 7 2 4 5 -5 5
-21 1 -23 -10 -5 -28 10 -11 9 -13 -5 -8 -20 7 -25 -9 -5 -16 7 -3 5 -6 -6 -6
-26 -1 -30 22 -12 65 18 43 23 60 24 88 1 13 6 17 21 13 12 -3 24 1 30 11 5
10 9 13 9 7 0 -5 -6 -18 -13 -28 -10 -13 -15 -15 -19 -5 -2 7 -8 10 -12 5 -5
-4 -3 -13 3 -19 9 -9 9 -15 -1 -27 -10 -12 -9 -13 3 -6 8 4 22 14 30 21 8 7
44 27 80 45 68 33 89 50 109 87 8 14 8 22 1 22 -5 0 -10 11 -10 25 0 18 4 23
15 19 9 -4 15 0 15 7 0 11 2 11 10 -1 7 -12 11 -12 28 3 11 10 38 19 64 20 42
2 44 4 43 30 l-2 28 88 -4 c48 -3 92 -8 98 -11 5 -3 11 -1 13 5 2 6 18 12 36
14 18 1 38 7 44 13 6 6 16 8 23 6 7 -3 16 0 20 6 6 9 -6 10 -46 4 -110 -16
-154 -5 -256 59 -68 42 -98 76 -108 123 -13 57 -17 60 -30 24 -7 -22 -9 -48
-4 -70 4 -19 6 -36 4 -38 -8 -8 24 -32 42 -33 14 0 13 -2 -6 -10 -37 -15 -98
8 -113 42 -9 20 -15 24 -21 16 -6 -8 -7 -4 -4 11 3 12 2 20 -3 17 -4 -3 -10 2
-14 10 -3 8 -10 15 -16 15 -6 0 -8 -4 -5 -10 3 -5 1 -10 -4 -10 -6 0 -10 12
-10 28 2 45 10 64 25 58 17 -6 28 10 13 19 -23 15 -80 -29 -105 -82 -20 -44
-29 -53 -50 -53 -18 0 -25 -4 -21 -14 3 -7 0 -19 -6 -25 -8 -8 -3 -11 20 -11
18 0 35 -5 39 -11 4 -8 -1 -9 -16 -4 -16 5 -21 4 -18 -6 3 -8 12 -13 21 -13 9
1 18 -5 21 -12 3 -8 2 -13 -2 -11 -14 4 -54 -31 -42 -38 8 -5 7 -10 -4 -18
-11 -8 -17 -33 -18 -79 -3 -66 -13 -90 -20 -46 -4 28 -28 36 -28 9 0 -12 -4
-21 -10 -21 -5 0 -10 -5 -10 -11 0 -8 4 -8 13 -1 15 13 49 -9 39 -24 -13 -19
-40 -23 -52 -8 -7 8 -10 14 -6 14 4 0 0 14 -9 30 -17 32 -29 41 -18 13 5 -11
3 -14 -6 -9 -7 5 -11 17 -8 27 3 10 0 17 -6 16 -6 -1 -15 8 -22 19 -6 12 -17
30 -25 40 -9 11 -10 15 -2 10 6 -4 12 -2 12 3 0 6 -5 11 -11 11 -6 0 -17 7
-25 15 -20 20 -38 19 -30 -1 3 -8 2 -12 -4 -9 -6 3 -10 12 -10 19 0 8 -20 20
-44 27 -50 15 -68 45 -39 67 19 13 31 68 13 57 -5 -3 -10 -1 -10 4 0 6 9 11
19 11 12 0 21 9 25 25 4 14 11 23 17 20 5 -4 15 -2 22 3 7 6 31 16 55 23 l44
13 -29 15 c-22 12 -24 16 -10 19 9 2 17 8 17 13 0 5 -5 8 -12 6 -7 -1 -13 4
-14 11 -1 6 -2 17 -3 22 0 6 -12 3 -26 -6 -14 -9 -25 -12 -25 -7 0 15 125 134
128 123 2 -5 8 -10 14 -10 6 0 8 7 4 15 -3 10 10 25 41 46 36 25 47 29 55 18
7 -11 8 -10 6 5 -4 28 59 46 158 45 l84 -1 0 -34 c0 -27 -8 -41 -37 -67 -20
-18 -40 -31 -44 -30 -5 2 -6 -4 -3 -12 4 -8 1 -15 -6 -15 -7 0 -10 -7 -6 -16
4 -11 -3 -25 -21 -40 -29 -25 -70 -34 -57 -12 7 12 -8 5 -35 -16 -7 -6 -19
-11 -25 -12 -29 -2 -77 -18 -82 -26 -10 -17 2 -19 29 -5 15 8 53 13 93 12 58
-2 71 1 87 19 13 15 20 17 23 9 3 -7 10 -13 16 -13 7 0 6 5 -1 14 -15 18 49
84 110 113 63 29 110 37 234 38 92 1 202 13 367 40 21 3 37 -3 62 -26 23 -20
37 -26 41 -18 4 6 20 9 36 7 23 -4 29 -1 29 14 0 17 10 22 38 19 6 -1 12 5 12
13 0 8 12 24 26 35 15 12 23 21 18 21 -5 1 3 7 18 16 30 16 28 44 -3 44 -13 0
-17 5 -12 18 6 15 5 15 -10 3 -12 -10 -21 -10 -30 -3 -8 7 -18 7 -27 2 -8 -6
-39 -10 -68 -10 -29 0 -51 -3 -49 -7 3 -5 -7 -8 -21 -9 -15 0 -54 -5 -87 -9
-70 -10 -199 -10 -234 1 -17 5 -22 4 -17 -4 4 -7 1 -12 -8 -12 -9 0 -16 6 -17
13 0 9 -2 9 -6 -1 -4 -10 -8 -10 -21 0 -8 7 -17 12 -19 10 -5 -5 -129 35 -171
54 -36 17 -34 34 4 34 14 0 69 9 122 20 148 31 237 39 304 30 42 -6 68 -5 82
2 19 10 19 9 8 -5 -12 -14 -9 -16 20 -19 28 -2 33 -7 30 -25 -4 -27 -5 -26
110 -23 l88 2 35 -35 c43 -43 60 -47 195 -47 58 1 117 1 133 1 20 0 27 5 27
19 0 21 24 27 35 10 8 -14 46 -2 61 18 6 8 16 12 23 8 6 -4 14 0 18 10 10 26
-18 40 -120 58 -104 19 -155 34 -178 53 -19 16 -59 25 -59 14 0 -5 -11 -6 -25
-3 -14 2 -25 0 -25 -6 0 -5 -17 -13 -37 -17 -28 -5 -38 -3 -45 9 -8 15 -11 15
-24 1 -14 -14 -36 -20 -58 -16 -5 1 -13 -4 -17 -11 -5 -7 -9 -8 -9 -3 0 6 -17
9 -42 6 -37 -3 -41 -1 -30 11 6 8 9 18 5 21 -6 7 12 11 31 8 5 -1 5 6 2 16 -4
9 -4 14 0 11 3 -4 13 -1 21 7 20 20 39 19 23 -1 -12 -13 -10 -14 16 -2 16 7
34 18 39 25 11 13 68 31 106 32 16 1 37 -11 59 -34z m1787 -331 c-3 -3 -12 -4
-19 -1 -8 3 -5 6 6 6 11 1 17 -2 13 -5z m-3337 -254 c0 -5 -7 -10 -15 -10 -8
0 -21 -12 -29 -27 -8 -16 -15 -22 -16 -15 0 12 43 62 55 62 3 0 5 -4 5 -10z
m2290 -20 c0 -5 -2 -10 -4 -10 -3 0 -8 5 -11 10 -3 6 -1 10 4 10 6 0 11 -4 11
-10z m-2230 -4 c0 -2 -7 -6 -15 -10 -8 -3 -15 -1 -15 4 0 6 7 10 15 10 8 0 15
-2 15 -4z m-152 -110 c-2 -1 -12 -8 -22 -16 -18 -14 -19 -14 -7 8 7 12 17 20
22 16 6 -3 9 -7 7 -8z m522 -16 c0 -5 7 -7 15 -4 9 4 18 -1 21 -10 10 -27 0
-27 -31 -1 -17 13 -24 24 -17 25 6 0 12 -4 12 -10z m-130 -10 c0 -5 -7 -10
-15 -10 -8 0 -15 5 -15 10 0 6 7 10 15 10 8 0 15 -4 15 -10z m-445 -40 c3 -5
1 -10 -4 -10 -6 0 -11 5 -11 10 0 6 2 10 4 10 3 0 8 -4 11 -10z m-70 -84 c-58
-51 -77 -53 -22 -2 20 19 37 31 37 28 0 -3 5 -1 12 6 7 7 14 12 17 12 3 0 -17
-20 -44 -44z m79 -31 c-8 -21 -13 -46 -11 -57 5 -17 -17 -27 -26 -10 -2 4 -2
2 -1 -5 2 -6 -4 -17 -12 -23 -11 -10 -14 -10 -14 -1 0 7 -5 9 -12 5 -9 -6 -9
-9 0 -12 7 -2 9 -9 5 -15 -12 -19 -12 -37 -1 -37 6 0 8 7 4 15 -6 16 35 32 53
20 6 -3 11 -1 11 6 0 7 6 5 13 -6 8 -10 19 -15 25 -11 6 4 21 -3 33 -15 13
-13 28 -19 42 -15 24 6 56 -9 75 -36 7 -10 19 -18 25 -18 14 0 52 -54 63 -90
9 -30 10 -62 2 -75 -3 -6 0 -23 8 -40 8 -17 11 -21 8 -8 -8 34 13 95 46 131
16 17 32 32 35 32 9 0 -9 -36 -31 -60 -20 -22 -21 -28 -10 -49 14 -25 10 -61
-8 -73 -8 -5 -7 -8 2 -8 14 0 16 -38 3 -58 -4 -7 -18 -14 -29 -15 -12 -1 -22
-4 -22 -8 0 -4 -8 -9 -17 -13 -10 -3 -33 -14 -51 -25 -30 -17 -31 -20 -17 -35
9 -9 23 -16 32 -16 13 0 13 -3 3 -15 -11 -13 -7 -15 26 -16 22 -1 47 -1 56 0
9 1 26 -6 37 -16 25 -21 29 -55 6 -47 -9 4 -15 0 -15 -10 0 -9 6 -16 14 -16 8
0 16 -5 18 -11 2 -6 13 -12 23 -13 29 -3 55 -17 55 -28 0 -6 7 -16 16 -23 13
-9 15 -18 8 -39 -9 -27 -10 -27 -28 -7 -17 19 -17 19 3 14 12 -3 21 -1 21 6 0
6 -4 11 -8 11 -5 0 -17 8 -28 18 -16 15 -42 30 -64 37 -43 13 -98 27 -115 29
-11 1 -27 6 -35 11 -13 8 -13 6 -1 -8 7 -9 12 -17 10 -17 -2 -1 -28 -2 -56 -3
-46 -2 -57 -7 -83 -35 -16 -18 -30 -37 -30 -43 0 -14 -18 -11 -45 7 -20 13
-31 14 -56 5 -24 -8 -36 -8 -47 2 -10 7 -13 8 -9 1 4 -7 0 -14 -8 -18 -9 -3
-19 3 -25 15 -9 15 -7 21 5 25 8 3 15 11 16 18 0 14 58 60 66 52 4 -3 1 -6 -5
-6 -7 0 -12 -5 -12 -10 0 -6 11 -8 25 -4 16 4 37 -1 60 -15 l36 -21 50 37 c45
34 48 39 32 50 -23 18 -96 16 -140 -2 -49 -21 -52 -12 -6 16 21 13 44 29 52
37 8 7 25 21 38 29 37 25 83 97 72 114 -7 12 -9 11 -9 -3 0 -9 -10 -24 -22
-32 -20 -14 -24 -14 -45 6 -21 20 -23 45 -1 32 6 -4 6 2 -1 15 -14 25 -24 26
-41 6 -15 -18 1 -20 18 -3 9 9 12 9 12 0 0 -7 -7 -15 -16 -19 -8 -3 -13 -12
-10 -19 4 -10 0 -11 -19 -2 -18 8 -28 8 -38 -1 -11 -9 -17 -8 -27 4 -16 19 -9
27 24 29 24 1 38 16 16 16 -5 0 -10 5 -10 11 0 5 5 7 10 4 14 -9 13 8 -2 23
-9 9 -8 12 6 12 16 0 16 2 6 15 -10 11 -10 19 -2 27 6 6 8 17 5 24 -3 8 -1 14
5 14 21 0 -38 99 -67 115 -37 18 -36 18 -55 0 -14 -14 -17 -14 -36 5 -11 11
-25 18 -30 15 -6 -4 -10 0 -10 8 0 18 24 39 33 30 4 -3 7 0 8 8 2 37 11 54 56
105 26 30 59 68 73 84 13 16 26 28 27 26 2 -2 -4 -20 -13 -41z m498 -74 c-4
-10 -1 -12 9 -6 12 8 12 6 0 -8 -8 -10 -9 -17 -3 -17 6 0 13 4 16 9 3 5 16 11
28 14 22 6 22 6 -2 -13 -23 -18 -23 -20 -5 -20 19 -1 19 -1 2 -11 -10 -6 -25
-8 -32 -5 -8 3 -30 -10 -50 -28 -19 -18 -35 -31 -35 -29 0 11 35 63 42 63 14
0 8 18 -8 24 -10 4 -13 2 -8 -6 4 -6 0 -16 -8 -22 -8 -6 -17 -19 -21 -28 -3
-10 -12 -18 -19 -18 -9 0 -9 3 0 12 8 8 8 15 1 24 -8 9 -5 18 10 30 11 10 17
22 14 28 -3 6 -3 8 2 4 4 -4 13 -1 20 5 18 18 54 16 47 -2z m2992 10 c4 -5 -3
-7 -14 -4 -23 6 -26 13 -6 13 8 0 17 -4 20 -9z m56 -31 c-20 -13 -33 -13 -25
0 3 6 14 10 23 10 15 0 15 -2 2 -10z m-254 -75 c2 -27 -14 -36 -45 -28 -27 7
-27 23 -1 23 11 0 20 5 20 11 0 6 -7 9 -15 5 -17 -6 -18 -4 -9 18 9 23 49 1
50 -29z m-3478 -22 c-41 -63 -54 -76 -33 -33 26 51 46 80 56 80 4 0 -6 -21
-23 -47z m4351 -5 c10 3 12 0 8 -12 -4 -10 -7 -24 -7 -31 0 -8 -13 -23 -28
-34 -35 -25 -82 -37 -82 -22 0 6 10 11 23 12 21 0 21 1 2 9 -18 7 -19 8 -2 15
9 4 17 16 17 26 0 23 8 24 31 3 11 -10 19 -12 24 -5 3 6 -1 11 -9 11 -9 0 -16
2 -16 4 0 2 -3 12 -7 21 -5 14 -3 16 13 8 10 -6 25 -8 33 -5z m-3815 -13 c3
-9 0 -15 -9 -15 -9 0 -12 6 -9 15 4 8 7 15 9 15 2 0 5 -7 9 -15z m-519 -35
c-3 -5 -10 -10 -16 -10 -5 0 -9 5 -9 10 0 6 7 10 16 10 8 0 12 -4 9 -10z
m2455 0 c0 -5 -5 -10 -11 -10 -5 0 -7 5 -4 10 3 6 8 10 11 10 2 0 4 -4 4 -10z
m-2470 -60 c0 -5 -5 -10 -11 -10 -5 0 -7 5 -4 10 3 6 8 10 11 10 2 0 4 -4 4
-10z m3019 -16 c40 -46 6 -98 -39 -61 -15 12 -40 51 -40 62 0 5 37 23 51 24 3
1 16 -11 28 -25z m61 16 c-8 -5 -22 -10 -30 -10 -13 0 -13 1 0 10 8 5 22 10
30 10 13 0 13 -1 0 -10z m-3169 -43 c-10 -9 -11 -8 -5 6 3 10 9 15 12 12 3 -3
0 -11 -7 -18z m1426 7 c-3 -3 -12 -4 -19 -1 -8 3 -5 6 6 6 11 1 17 -2 13 -5z
m-151 -33 c-9 -15 -151 -25 -183 -13 -24 9 -21 10 22 5 38 -3 137 6 163 16 2
0 1 -3 -2 -8z m177 -73 c9 -11 24 -45 33 -76 19 -65 13 -167 -12 -192 -14 -13
-14 -13 -8 4 6 16 4 18 -14 14 -12 -4 -20 -2 -17 2 3 5 -1 11 -7 13 -8 4 -7 6
4 6 20 1 32 17 22 32 -4 8 -9 7 -15 -2 -7 -11 -9 -11 -9 2 0 12 -11 18 -37 21
-46 6 -54 2 -20 -11 28 -11 43 -29 32 -39 -3 -3 -10 0 -16 8 -8 13 -11 13 -20
-2 -5 -10 -15 -18 -21 -18 -6 0 -21 -11 -34 -25 -13 -14 -29 -25 -36 -24 -10
0 -10 2 0 6 6 2 12 10 12 16 -1 7 -9 3 -18 -8 -22 -25 -47 -41 -92 -60 -19 -9
-43 -20 -53 -26 -10 -5 -23 -7 -29 -3 -6 4 -8 3 -4 -4 13 -21 -48 -5 -63 17
-13 20 -12 24 20 50 19 16 37 27 42 24 4 -2 7 1 7 6 0 6 5 11 11 11 6 0 9 -6
6 -14 -4 -11 2 -12 35 -4 53 11 72 22 97 54 34 43 24 50 -16 11 -20 -20 -41
-37 -47 -38 -6 0 -23 -2 -38 -4 -15 -2 -30 1 -33 6 -4 5 0 9 9 9 19 0 110 46
123 62 6 7 14 29 18 48 13 63 26 69 22 10 -4 -44 -2 -51 7 -36 6 10 22 32 35
48 23 29 24 40 5 105 -5 18 -3 21 15 16 12 -3 21 -12 21 -20 0 -8 5 -11 10 -8
6 4 8 16 4 27 -6 19 -3 20 22 14 16 -4 37 -16 47 -28z m-1398 -8 c-4 -14 -2
-20 8 -20 16 0 31 -27 28 -47 -1 -7 6 -13 16 -14 16 0 16 -1 -1 -8 -14 -5 -16
-10 -8 -15 7 -4 17 -4 22 -1 6 3 10 0 10 -9 0 -8 3 -22 6 -30 5 -13 2 -15 -12
-9 -16 6 -17 4 -7 -8 9 -11 7 -19 -13 -38 -13 -13 -24 -18 -24 -12 0 6 -5 11
-11 11 -6 0 -8 -8 -4 -19 7 -23 -24 -38 -38 -19 -6 9 -7 7 -3 -6 8 -23 -24
-56 -52 -56 -20 0 -46 -23 -37 -32 3 -3 -1 -11 -10 -18 -8 -7 -15 -18 -15 -24
0 -17 -81 -97 -92 -90 -5 4 0 11 13 18 12 6 26 18 30 26 5 8 22 39 39 68 16
29 30 60 30 68 0 19 29 64 42 64 5 0 6 -5 2 -12 -5 -7 -3 -8 6 -3 10 6 10 11
-4 20 -13 10 -14 14 -3 24 8 6 17 8 20 4 4 -3 7 -2 7 4 0 6 -15 10 -32 9 -29
-2 -33 -5 -33 -31 0 -17 -7 -40 -16 -53 -16 -22 -17 -22 -22 -3 -7 30 80 195
136 259 25 27 30 28 22 2z m3895 6 c0 -2 -7 -7 -16 -10 -8 -3 -12 -2 -9 4 6
10 25 14 25 6z m-193 -12 c-3 -3 -12 -4 -19 -1 -8 3 -5 6 6 6 11 1 17 -2 13
-5z m-1407 -14 c0 -5 -6 -10 -14 -10 -8 0 -18 5 -21 10 -3 6 3 10 14 10 12 0
21 -4 21 -10z m1301 -6 c19 3 50 3 69 -1 33 -6 33 -6 10 -15 -27 -10 -148 -13
-157 -4 -4 3 3 6 15 6 16 0 20 5 16 18 -4 13 -3 14 4 4 6 -9 21 -12 43 -8z
m-2121 -97 c0 -5 -4 -5 -10 -2 -5 3 -10 14 -10 23 0 15 2 15 10 2 5 -8 10 -19
10 -23z m-1323 -6 c0 -10 -7 -17 -13 -14 -7 3 -10 11 -7 19 8 20 22 17 20 -5z
m148 1 c-3 -3 -11 0 -18 7 -9 10 -8 11 6 5 10 -3 15 -9 12 -12z m3681 -69 c23
-39 25 -51 18 -96 -4 -29 -9 -44 -12 -34 -3 16 -11 19 -56 21 -10 1 -26 17
-37 36 l-18 35 -1 -37 c0 -21 -4 -38 -10 -38 -10 0 -13 12 -11 41 1 9 -3 29
-9 44 -10 27 -8 31 32 66 39 34 44 36 60 22 10 -9 29 -36 44 -60z m-1401 -2
c3 -5 1 -12 -5 -16 -5 -3 -10 1 -10 9 0 18 6 21 15 7z m-2488 -26 c-4 -8 -12
-15 -19 -14 -10 0 -10 2 0 6 6 2 12 12 12 21 0 8 3 13 6 9 4 -3 4 -13 1 -22z
m2423 -36 c0 -24 -40 1 -44 27 -5 30 16 35 31 7 7 -14 13 -29 13 -34z m650 44
c0 -11 7 -14 25 -11 22 5 25 3 19 -16 -6 -19 -5 -19 10 -7 15 13 19 13 27 0 5
-8 12 -26 15 -41 4 -15 10 -25 15 -22 8 5 11 -2 8 -22 0 -3 6 -11 14 -17 8 -7
17 -21 21 -32 6 -16 5 -18 -5 -7 -17 16 -29 15 -29 -3 0 -18 36 -38 52 -29 7
4 8 3 4 -5 -4 -6 0 -14 11 -18 10 -4 25 -15 34 -25 21 -23 30 -23 23 0 -5 14
-3 14 11 -3 9 -11 20 -19 25 -18 5 2 7 -4 3 -12 -4 -13 -8 -13 -22 -3 -14 12
-14 11 -2 -4 7 -10 18 -15 23 -12 5 4 23 -4 40 -16 16 -12 33 -18 36 -15 4 4
1 10 -5 12 -7 3 -13 9 -13 15 0 7 4 7 13 0 19 -16 78 -18 104 -4 19 11 26 9
44 -9 20 -20 21 -20 15 -1 -6 17 -3 19 14 15 13 -4 19 -11 16 -20 -3 -8 -2
-12 3 -9 9 6 30 -58 32 -95 l1 -24 7 25 c7 25 8 24 15 -7 8 -35 13 -38 35 -24
9 6 11 16 7 27 -5 15 -4 16 4 7 16 -14 25 -130 15 -180 -4 -21 -10 -32 -12
-26 -4 10 -11 9 -33 -2 -44 -23 -58 -19 -53 13 3 23 1 22 -14 -11 -10 -20 -30
-43 -44 -51 -29 -15 -79 -29 -79 -22 0 3 14 28 31 57 34 59 48 109 29 109 -6
0 -21 10 -32 23 -14 16 -21 18 -25 9 -3 -8 -20 4 -48 34 -42 44 -46 46 -86 41
-34 -4 -45 -2 -58 14 -11 13 -34 22 -71 26 -39 5 -49 8 -35 14 17 6 17 8 3 8
-24 1 -98 -29 -98 -40 0 -5 6 -9 13 -9 6 0 4 -5 -6 -11 -9 -6 -15 -14 -12 -20
9 -13 -21 -11 -84 6 -69 18 -89 35 -32 28 33 -5 54 1 107 26 37 18 64 35 60
38 -3 3 -29 -6 -57 -21 -29 -14 -54 -24 -57 -22 -3 3 7 10 22 15 14 6 26 15
26 21 0 6 -10 4 -23 -4 -12 -9 -55 -19 -95 -22 -41 -4 -68 -10 -62 -14 17 -10
1 -15 -40 -14 -101 4 -100 3 -100 24 0 11 7 20 15 20 8 0 14 3 14 8 -1 4 0 12
1 17 2 6 3 19 4 30 1 11 19 31 44 48 39 26 42 32 42 72 0 33 3 43 14 39 8 -3
18 7 26 28 6 18 16 42 22 53 5 12 10 28 12 37 3 24 25 46 49 50 49 7 57 6 57
-9z m-1620 -13 c0 -4 -7 -11 -16 -14 -8 -3 -12 -2 -9 4 3 6 1 10 -5 10 -6 0
-9 4 -5 10 6 10 35 2 35 -10z m1037 -11 c-6 -10 -15 -19 -19 -19 -5 0 -8 -6
-8 -14 0 -8 -5 -18 -11 -22 -8 -4 -9 4 -4 27 9 44 10 44 34 46 18 2 19 -1 8
-18z m-2755 -31 c-7 -7 -12 -8 -12 -2 0 14 12 26 19 19 2 -3 -1 -11 -7 -17z
m242 6 c8 -22 8 -22 -16 -35 -20 -11 -21 -10 -10 3 7 9 10 23 6 32 -3 9 -2 16
4 16 5 0 13 -7 16 -16z m-34 -14 c0 -5 -5 -10 -11 -10 -5 0 -7 5 -4 10 3 6 8
10 11 10 2 0 4 -4 4 -10z m1365 -17 c16 -18 25 -23 25 -13 0 9 6 6 16 -8 9
-13 13 -26 10 -30 -9 -8 -46 -10 -46 -2 0 4 -11 24 -25 44 -29 42 -17 48 20 9z
m128 -78 l22 -30 -35 22 c-31 19 -79 84 -80 107 0 10 62 -56 93 -99z m942 85
c3 -5 13 -10 21 -10 23 0 41 -22 49 -61 4 -18 16 -41 26 -50 31 -26 22 -31
-19 -10 -36 18 -78 55 -111 95 -7 10 -19 15 -27 12 -8 -3 -14 -1 -14 4 0 6 11
10 25 10 14 0 25 5 25 10 0 6 4 10 9 10 6 0 13 -4 16 -10z m-2645 -4 c0 -10
-74 -112 -96 -133 -13 -12 -30 -20 -38 -17 -9 4 2 20 36 52 27 25 56 59 64 74
12 23 34 39 34 24z m1030 -6 c0 -6 11 -15 24 -20 18 -6 30 -24 43 -61 10 -28
28 -61 40 -73 28 -26 31 -46 3 -21 -11 10 -32 42 -46 72 -14 30 -40 67 -57 83
-18 16 -26 30 -19 30 6 0 12 -5 12 -10z m1744 -23 c23 -23 24 -23 37 -6 9 13
15 15 20 7 6 -9 11 -8 23 1 13 11 16 11 16 -2 0 -9 -7 -20 -16 -25 -10 -6 -12
-12 -6 -16 5 -3 17 6 27 20 21 32 30 24 26 -23 -3 -34 -1 -35 23 -29 14 3 37
9 51 12 30 7 34 -12 5 -21 -11 -3 -20 -11 -20 -17 0 -7 -15 -9 -40 -5 -36 5
-40 3 -41 -16 0 -12 -3 -16 -6 -9 -2 6 -11 12 -19 12 -8 0 -14 5 -14 10 0 6 6
10 12 10 7 0 1 8 -12 17 -14 9 -29 23 -33 30 -6 10 -11 10 -21 0 -15 -13 -11
-31 5 -22 5 3 6 -1 3 -9 -4 -11 0 -16 10 -16 9 0 16 -5 16 -10 0 -14 -27 1
-62 34 -28 25 -30 30 -30 66 0 11 0 22 1 25 3 12 24 3 45 -18z m-2535 -15 c-5
-13 -9 -29 -9 -36 0 -21 43 -34 100 -30 67 5 90 -2 90 -26 0 -17 -22 -29 -65
-35 -11 -2 -31 -7 -44 -11 -15 -4 -22 -4 -18 3 4 6 -3 8 -17 6 -14 -3 -32 0
-43 6 -10 6 -13 11 -7 11 14 0 6 50 -8 50 -5 0 -7 -9 -3 -19 3 -11 1 -22 -5
-26 -6 -3 -10 4 -11 17 0 13 -3 17 -6 10 -9 -22 39 -122 58 -122 10 0 19 -4
21 -8 2 -5 17 -3 33 4 29 13 30 13 5 15 -14 1 -31 1 -37 0 -7 -1 -13 3 -13 8
0 6 -6 8 -14 5 -8 -3 -16 4 -19 17 -8 28 -2 35 16 21 8 -7 17 -9 21 -5 3 4 12
-1 19 -11 12 -16 16 -16 70 4 31 12 59 21 62 21 10 -2 42 34 38 42 -2 4 41 6
97 5 94 -3 103 -5 121 -27 23 -28 19 -37 -10 -21 -42 22 -183 15 -201 -10 -6
-8 -46 -30 -55 -30 -3 0 -3 6 1 13 5 8 2 8 -9 -2 -9 -7 -17 -10 -17 -6 0 4 -7
2 -15 -5 -8 -7 -15 -18 -14 -24 0 -7 2 -6 6 2 2 6 12 12 20 12 14 0 14 -3 -2
-20 -10 -11 -24 -20 -32 -20 -26 0 -2 -20 25 -21 15 0 22 -3 16 -5 -17 -7 -6
-38 17 -52 19 -12 19 -12 5 17 -15 28 -15 29 4 24 21 -6 29 20 10 32 -6 3 -7
-1 -4 -9 8 -21 -13 -20 -24 1 -12 20 9 38 83 72 60 28 119 25 186 -8 43 -22
111 -91 90 -91 -6 0 -13 -11 -17 -24 -6 -24 -7 -24 -50 -11 -24 7 -46 9 -49 5
-3 -5 8 -11 25 -15 56 -12 42 -25 -27 -25 -37 -1 -78 -6 -91 -14 -20 -11 -15
-12 50 -12 61 1 73 -2 70 -15 -1 -9 8 -21 20 -28 21 -10 20 -11 -7 -4 -16 3
-68 8 -115 9 -74 1 -86 4 -95 22 -8 15 -15 18 -28 11 -13 -8 -17 -6 -17 4 0 8
-7 18 -16 21 -10 4 -13 2 -7 -7 4 -6 8 -16 8 -22 0 -5 11 -15 25 -22 14 -7 18
-13 10 -13 -21 1 -53 27 -46 38 3 6 -1 12 -9 16 -8 3 -15 1 -15 -4 0 -6 -10
-10 -23 -10 -13 0 -28 -5 -34 -11 -8 -8 -13 -8 -17 0 -4 6 -3 11 3 11 7 0 7 8
1 25 -5 14 -7 33 -3 42 5 15 3 14 -10 -2 -14 -17 -16 -18 -17 -3 0 13 -8 16
-40 13 -22 -2 -38 0 -35 4 2 5 -6 18 -19 30 -20 19 -24 20 -30 6 -3 -9 -2 -13
4 -10 6 3 7 -1 4 -10 -5 -12 -10 -13 -17 -6 -17 17 -35 13 -42 -10 -5 -15 -10
-18 -15 -10 -5 10 -10 9 -21 -2 -8 -7 -20 -12 -27 -9 -7 2 -12 -5 -12 -15 0
-15 7 -19 34 -19 19 0 33 4 30 8 -3 4 2 5 10 2 9 -3 16 -14 17 -23 3 -55 27
-139 46 -162 7 -9 11 -23 8 -31 -5 -13 27 -49 56 -61 8 -3 -2 -4 -21 -2 -64 6
-70 12 -103 96 -12 30 -12 38 -1 54 8 10 14 26 13 34 0 11 -2 12 -6 4 -2 -7
-9 -13 -14 -13 -4 0 -6 6 -3 14 3 8 1 17 -5 21 -7 4 -11 -5 -12 -22 0 -25 -1
-26 -9 -8 -5 11 -9 33 -9 49 -1 24 -14 30 -17 8 -2 -16 -18 -48 -28 -54 -7 -6
-6 -11 4 -18 9 -6 10 -10 3 -10 -6 0 -15 5 -18 10 -4 6 -11 7 -17 4 -7 -4 -8
-2 -4 5 4 6 0 19 -9 28 -14 13 -18 14 -25 3 -4 -7 -6 -19 -3 -27 3 -7 1 -13
-5 -13 -44 0 -2 129 85 263 51 79 78 108 89 99 4 -4 4 -2 1 5 -12 19 81 100
113 99 25 -1 27 -4 19 -24z m2096 -1 c3 -5 18 -12 33 -16 15 -3 38 -15 52 -25
21 -16 22 -22 11 -29 -11 -7 -12 -13 -3 -23 16 -20 2 -34 -43 -43 -56 -12
-135 -13 -135 -3 0 4 -9 8 -20 8 -45 0 -8 83 54 121 35 21 42 23 51 10z m1235
-105 c0 -5 -11 1 -25 14 -14 13 -25 31 -25 39 0 17 49 -36 50 -53z m79 27 c16
-16 31 -43 35 -61 l6 -33 -30 21 c-31 22 -37 35 -20 45 16 10 0 26 -20 20 -20
-6 -35 9 -25 25 10 16 24 12 54 -17z m-2443 -5 c13 -21 14 -59 1 -52 -29 17
-45 37 -40 50 6 17 29 18 39 2z m494 -33 c0 -8 -2 -15 -4 -15 -2 0 -6 7 -10
15 -3 8 -1 15 4 15 6 0 10 -7 10 -15z m50 0 c0 -8 -2 -15 -4 -15 -2 0 -6 7
-10 15 -3 8 -1 15 4 15 6 0 10 -7 10 -15z m-530 -45 c0 -5 -2 -10 -4 -10 -3 0
-8 5 -11 10 -3 6 -1 10 4 10 6 0 11 -4 11 -10z m1252 -57 c-9 -28 -9 -27 -9
10 1 22 5 33 10 28 6 -6 5 -20 -1 -38z m-1190 -19 l33 -15 -30 6 c-42 9 -75
32 -75 53 1 14 4 13 20 -6 10 -12 33 -29 52 -38z m338 -15 c7 -16 17 -26 23
-22 21 13 -6 -72 -31 -98 -34 -35 -79 -48 -88 -25 -3 9 -11 16 -18 16 -6 0
-20 14 -31 30 -11 16 -26 30 -34 30 -17 0 -105 50 -99 56 3 2 22 -5 43 -16 81
-41 146 -36 165 15 5 14 17 25 27 25 15 0 15 2 -2 14 -18 13 -18 14 7 9 17 -3
31 -15 38 -34z m798 4 c6 -9 12 -27 12 -39 0 -25 -51 -84 -72 -83 -8 0 -9 2
-2 5 16 7 -20 80 -45 94 -11 5 -35 10 -53 11 l-33 1 35 8 c19 5 38 6 42 4 5
-3 8 -1 8 5 0 24 89 20 108 -6z m-898 5 c0 -12 -18 -18 -34 -12 -25 9 -19 22
9 20 14 0 25 -4 25 -8z m194 1 c4 6 12 11 17 11 6 0 8 -4 4 -9 -3 -5 5 -13 17
-17 29 -9 88 -47 88 -56 0 -11 -27 -10 -71 4 -22 6 -39 16 -39 23 0 6 -11 18
-25 25 -13 7 -22 17 -18 23 3 5 9 4 13 -3 5 -9 9 -9 14 -1z m-844 -3 c0 -3 -4
-8 -10 -11 -5 -3 -10 -1 -10 4 0 6 5 11 10 11 6 0 10 -2 10 -4z m580 -16 c0
-5 -7 -7 -15 -4 -8 4 -15 8 -15 10 0 2 7 4 15 4 8 0 15 -4 15 -10z m700 -4 c0
-3 -4 -8 -10 -11 -5 -3 -10 -1 -10 4 0 6 5 11 10 11 6 0 10 -2 10 -4z m-119
-16 c13 -7 19 -7 19 0 0 5 5 10 10 10 16 0 12 -17 -6 -24 -19 -7 -64 3 -64 15
0 12 17 11 41 -1z m79 0 c0 -5 -4 -10 -10 -10 -5 0 -10 5 -10 10 0 6 5 10 10
10 6 0 10 -4 10 -10z m-1160 -14 c-8 -7 -30 -18 -48 -24 -27 -9 -37 -9 -48 3
-18 18 -6 25 38 21 19 -2 42 0 49 5 21 13 25 11 9 -5z m790 -26 c0 -5 -2 -10
-4 -10 -3 0 -8 5 -11 10 -3 6 -1 10 4 10 6 0 11 -4 11 -10z m473 -10 c3 -13 0
-20 -10 -20 -8 0 -11 5 -8 10 3 6 0 10 -7 10 -9 0 -9 3 2 10 8 5 16 10 16 10
1 0 4 -9 7 -20z m228 -7 c-5 -10 -17 -27 -25 -38 -15 -19 -16 -19 -6 9 14 38
19 46 31 46 6 0 6 -6 0 -17z m1247 5 c19 -19 14 -30 -7 -18 -11 5 -29 10 -41
10 -12 0 -18 5 -15 10 9 14 48 13 63 -2z m-3535 -43 c4 -27 3 -35 -3 -25 -5 8
-10 28 -10 44 0 39 6 30 13 -19z m3056 31 c24 -20 79 -36 127 -36 46 0 81 -12
127 -43 27 -19 38 -50 15 -46 -7 2 -38 -3 -68 -9 -76 -17 -222 -22 -238 -9 -9
7 -16 7 -20 0 -10 -14 -82 -4 -89 13 -7 19 -23 18 -23 -2 0 -8 5 -12 10 -9 6
3 10 1 10 -4 0 -10 -17 -15 -48 -14 -7 1 -11 -5 -8 -12 2 -7 -1 -16 -9 -19 -9
-3 -12 0 -9 8 3 7 -2 19 -10 26 -9 7 -14 16 -11 20 3 4 -2 13 -10 20 -19 16
-19 28 -1 46 13 12 15 12 18 -4 3 -13 10 -8 27 20 13 22 37 42 59 52 46 19
130 20 151 2z m-1243 -17 c3 -6 2 -15 -4 -21 -6 -6 -11 -2 -15 11 -5 22 7 29
19 10z m-24 -61 c-9 -9 -12 -4 -11 23 0 32 1 33 11 11 8 -17 8 -26 0 -34z
m-436 15 c-6 -6 -36 9 -36 18 0 5 9 4 20 -3 10 -7 18 -14 16 -15z m-281 -13
c3 -5 -1 -10 -9 -10 -9 0 -16 5 -16 10 0 6 4 10 9 10 6 0 13 -4 16 -10z m751
-27 c-10 -10 -19 5 -10 18 6 11 8 11 12 0 2 -7 1 -15 -2 -18z m-2069 -5 c-3
-8 -6 -5 -6 6 -1 11 2 17 5 13 3 -3 4 -12 1 -19z m3887 6 c19 -18 19 -22 5
-62 -9 -27 -20 -34 -87 -56 -94 -32 -99 -32 -97 -3 1 12 7 22 12 22 25 0 24
14 -1 21 -14 3 -26 9 -26 13 0 16 14 20 34 9 19 -10 19 -9 -2 12 l-23 22 27
15 c16 8 38 12 49 9 12 -3 34 -1 50 3 42 13 42 13 59 -5z m-2533 -41 c11 -26
29 -53 39 -60 25 -18 26 -46 3 -41 -10 2 -18 10 -18 18 0 8 -10 31 -22 50 -23
38 -38 80 -28 80 3 0 15 -21 26 -47z m-501 -19 c0 -8 -6 -14 -14 -14 -8 0 -16
-5 -18 -11 -2 -6 -9 1 -16 16 -7 14 -8 23 -2 20 5 -3 10 -1 10 4 0 6 -5 11
-10 11 -6 0 -5 6 2 15 11 12 15 11 31 -7 9 -11 17 -26 17 -34z m138 44 c-2 -6
-10 -14 -16 -16 -7 -2 -10 2 -6 12 7 18 28 22 22 4z m-288 -58 c4 0 8 -11 8
-23 0 -22 -3 -23 -24 -13 -27 12 -34 52 -8 42 9 -3 19 -6 24 -6z m2845 0 c4
-6 -6 -10 -22 -9 -25 0 -26 1 -8 9 11 5 21 9 22 9 1 1 5 -3 8 -9z m-253 -9
c10 5 18 6 18 1 0 -15 -50 -32 -93 -31 l-42 1 32 9 c18 5 35 14 39 20 4 7 9 8
17 0 7 -7 16 -7 29 0z m113 -1 c16 -7 12 -9 -18 -9 -23 -1 -36 3 -32 9 7 12
23 12 50 0z m-2571 -24 c-3 -9 -10 -16 -15 -16 -5 0 -4 9 3 20 14 22 21 20 12
-4z m105 -61 c-6 -33 -16 -69 -21 -79 -6 -11 -10 -39 -10 -62 1 -34 -2 -42
-13 -37 -8 3 -15 0 -15 -6 0 -6 5 -11 10 -11 20 0 9 -45 -15 -63 -24 -18 -25
-17 -25 5 0 13 0 47 0 76 -1 28 2 58 7 65 4 6 8 17 9 22 12 74 60 173 76 157
5 -5 3 -35 -3 -67z m2197 48 c-7 -7 -76 -33 -89 -33 -15 0 19 28 39 33 30 7
58 8 50 0z m-3146 -62 c0 -21 3 -53 6 -70 5 -24 3 -31 -10 -31 -13 0 -16 12
-16 70 0 40 4 70 10 70 6 0 10 -17 10 -39z m3950 14 c0 -8 -3 -15 -7 -15 -17
0 6 -174 39 -300 20 -74 43 -183 52 -241 8 -58 31 -167 51 -242 36 -142 42
-195 25 -228 -11 -19 -11 -19 -53 3 -32 16 -65 23 -142 26 -175 9 -259 7 -290
-5 -16 -6 -42 -14 -57 -17 -16 -4 -28 -13 -28 -21 0 -8 -5 -15 -11 -15 -5 0
-7 5 -4 10 3 6 2 10 -4 10 -5 0 -10 17 -9 38 0 22 -5 49 -12 62 -16 30 -5 85
22 110 12 11 46 28 75 37 60 19 86 41 74 62 -7 11 -13 9 -30 -8 -23 -23 -110
-43 -97 -23 14 23 -10 12 -36 -15 -50 -56 -72 -98 -43 -87 12 5 13 -7 8 -78
-8 -117 10 -153 149 -289 59 -59 108 -109 108 -111 0 -2 -19 -2 -42 -1 l-43 3
29 -14 c39 -18 43 -46 8 -47 -87 -5 -119 -3 -133 5 -12 7 -37 3 -80 -12 -48
-17 -65 -19 -70 -9 -4 6 -19 25 -33 41 l-25 30 -40 -19 c-23 -10 -41 -23 -41
-29 0 -13 -43 -53 -49 -46 -2 3 -8 -6 -13 -19 -17 -47 -6 -49 283 -41 70 2
144 -13 155 -32 4 -6 8 -26 10 -45 2 -34 2 -34 -29 -28 -18 4 -71 20 -118 36
-48 16 -96 29 -108 29 -20 0 -21 -1 -7 -16 9 -8 16 -24 16 -34 0 -22 57 -44
86 -33 17 6 18 5 4 -11 -8 -10 -24 -22 -36 -27 -20 -7 -22 -14 -18 -54 2 -26
6 -51 10 -56 3 -5 25 -7 49 -5 30 3 48 -1 56 -10 7 -8 18 -13 25 -10 28 11 55
-117 38 -181 -5 -19 -9 -21 -27 -11 -16 8 -23 7 -34 -8 -7 -10 -13 -14 -13 -8
0 5 -6 2 -13 -7 -7 -9 -22 -21 -34 -27 -25 -14 -179 -16 -187 -3 -3 4 -27 14
-53 21 -61 17 -120 53 -128 80 -3 11 -13 20 -21 20 -8 0 -17 6 -20 14 -3 8
-23 22 -45 30 -21 9 -39 21 -39 27 0 5 -4 8 -9 5 -14 -9 -41 4 -41 20 0 8 -7
14 -15 14 -8 0 -15 6 -16 13 0 9 -2 9 -6 -1 -4 -10 -10 -9 -25 4 -16 16 -21
16 -28 4 -7 -12 -12 -12 -22 -2 -14 14 -32 16 -23 2 3 -5 4 -10 1 -10 -2 0
-11 -3 -19 -6 -9 -3 -14 1 -14 13 0 36 -3 43 -19 43 -14 0 -14 3 -4 15 15 19
7 30 -16 21 -9 -3 -14 -13 -11 -20 6 -16 -13 -66 -25 -66 -5 0 -9 8 -9 18 -1
16 -2 16 -6 0 -6 -22 -17 -23 -33 -3 -12 14 -16 13 -40 -10 -19 -18 -29 -22
-37 -14 -6 6 -9 17 -7 24 3 7 0 16 -6 20 -7 4 -14 -2 -17 -14 -6 -24 -1 -24
-78 -10 -33 5 -73 12 -89 14 -34 5 -59 24 -52 40 2 7 0 18 -6 26 -8 11 -9 10
-4 -3 3 -10 1 -18 -3 -18 -5 0 -7 -10 -4 -22 4 -19 3 -20 -6 -8 -6 8 -11 23
-11 33 0 9 -4 17 -10 17 -5 0 -7 -6 -4 -13 3 -8 -2 -14 -10 -14 -8 0 -13 4
-10 9 3 4 0 8 -6 8 -6 0 -9 4 -6 8 2 4 -7 8 -22 9 -15 1 -21 -1 -14 -4 16 -6
15 -23 -2 -23 -20 0 -27 -40 -10 -57 25 -26 18 -46 -16 -41 -32 5 -40 -6 -14
-20 8 -4 17 -26 19 -48 3 -31 2 -34 -5 -16 -11 26 -32 30 -24 5 5 -15 3 -15
-10 1 -9 11 -16 14 -16 8 0 -15 -43 -9 -48 6 -2 7 -10 12 -17 12 -19 0 -30 40
-15 50 7 4 9 13 6 19 -5 7 2 11 19 11 17 0 24 4 19 11 -4 8 0 9 15 4 27 -8 27
8 -1 48 -17 24 -19 29 -5 24 12 -4 15 -2 11 11 -11 34 -28 62 -37 62 -5 0 -4
-6 2 -13 9 -11 3 -14 -29 -14 -26 0 -40 5 -40 13 0 7 -5 14 -12 16 -6 2 -12
13 -13 24 -3 35 -35 84 -55 84 -10 0 -21 -4 -25 -10 -8 -13 -32 -2 -38 19 -2
10 0 26 5 35 7 12 5 16 -6 16 -18 0 -56 30 -56 43 0 5 -15 22 -32 38 -21 18
-26 27 -14 23 13 -5 17 -4 12 4 -4 7 -14 12 -22 12 -17 0 -19 26 -1 33 6 3 -4
4 -23 2 -33 -4 -37 -1 -55 38 -14 30 -19 54 -15 82 4 25 0 48 -8 63 -8 12 -12
31 -9 42 3 11 1 20 -4 20 -5 0 -9 6 -9 14 0 7 -9 25 -20 39 -11 14 -16 28 -11
31 5 4 12 0 14 -6 3 -7 6 1 7 17 1 17 3 40 4 53 2 12 -1 22 -6 22 -4 0 -8 -8
-9 -17 0 -13 -3 -11 -10 6 -6 16 -6 28 1 35 7 7 10 6 10 -2 0 -7 5 -12 10 -12
6 0 10 16 10 35 0 28 5 38 25 47 14 6 25 15 25 21 0 5 11 6 24 3 23 -6 25 -3
23 26 -2 30 1 33 31 36 32 3 42 16 20 25 -7 3 2 3 19 0 20 -3 39 0 49 8 14 12
15 6 12 -54 -4 -50 -1 -67 9 -72 8 -2 12 -9 9 -14 -7 -11 11 -25 52 -39 40
-14 66 2 125 73 46 55 41 84 -23 122 -35 20 -41 22 -28 7 25 -30 44 -102 30
-116 -9 -9 -12 -6 -12 12 0 23 0 23 -14 4 -14 -18 -15 -18 -25 7 -11 31 -64
48 -59 20 1 -9 -2 -17 -7 -18 -6 -2 -10 22 -11 55 0 32 -3 63 -7 69 -4 7 5 31
20 54 19 29 29 37 31 26 2 -9 9 -14 17 -11 8 3 25 -5 38 -18 23 -23 85 -40 73
-19 -4 6 1 11 11 11 11 0 28 6 38 14 18 13 18 14 -8 9 -15 -3 -27 -1 -27 4 0
5 -7 18 -16 29 -15 18 -15 18 -11 -11 l5 -30 -28 33 c-24 29 -26 37 -16 58 12
25 36 33 36 12 0 -7 14 -29 30 -48 31 -38 48 -34 52 12 3 35 14 27 22 -16 8
-42 33 -66 42 -42 4 9 4 20 0 23 -3 4 -6 1 -6 -5 0 -7 -4 -12 -9 -12 -15 0 -6
182 14 253 10 37 21 64 24 58 7 -10 121 94 121 110 0 5 6 9 13 9 8 0 22 9 32
20 12 14 25 18 42 14 19 -5 25 -2 29 13 4 13 21 25 45 33 21 7 39 17 39 22 0
4 14 8 30 8 19 0 30 -5 30 -14 0 -8 9 -12 25 -10 14 1 31 -3 38 -10 14 -14 38
-17 129 -16 53 1 68 -2 76 -16 7 -13 19 -16 56 -12 25 3 49 2 52 -3 2 -4 16
-4 30 1 15 6 23 6 19 1 -3 -5 -19 -12 -35 -16 -16 -4 -32 -11 -35 -16 -4 -5
-15 -9 -26 -9 -10 0 -19 -5 -19 -11 0 -8 14 -10 45 -6 47 7 78 1 69 -14 -3 -5
1 -6 9 -3 8 3 32 -2 53 -11 25 -10 34 -11 27 -4 -29 29 -15 46 55 64 77 20
192 28 192 13 0 -5 5 -6 10 -3 6 4 10 -5 10 -20 0 -15 5 -35 10 -46 6 -11 8
-24 5 -29 -9 -15 -33 0 -45 28 -9 24 -10 22 -6 -17 l4 -43 -56 5 c-31 3 -68 8
-82 11 -14 3 0 -6 30 -21 37 -18 76 -28 119 -31 l64 -5 -24 -18 c-25 -19 -69
-26 -69 -10 0 5 -12 12 -27 16 -16 3 -57 20 -92 36 -70 32 -92 33 -38 2 52
-31 77 -56 77 -75 0 -10 -8 -18 -17 -19 -32 -1 -75 -8 -80 -12 -2 -3 12 -15
32 -27 33 -20 44 -22 116 -16 54 5 79 4 79 -3 0 -13 42 -15 56 -3 5 4 27 14
49 21 95 30 141 67 214 168 17 24 49 54 70 69 42 28 54 45 45 69 -8 21 22 65
44 65 10 0 27 7 38 15 25 19 34 19 34 0z m-2526 -27 c-4 -6 -10 -5 -15 3 -14
22 -10 33 6 19 8 -7 12 -17 9 -22z m1966 23 c-8 -5 -55 -16 -105 -26 -49 -9
-96 -18 -102 -20 -7 -3 -13 -1 -13 4 0 13 141 49 200 50 24 0 30 -2 20 -8z
m45 -1 c3 -5 -1 -10 -10 -10 -9 0 -13 5 -10 10 3 6 8 10 10 10 2 0 7 -4 10
-10z m55 6 c0 -2 -9 -6 -20 -9 -11 -3 -18 -1 -14 4 5 9 34 13 34 5z m-330 -50
c0 -3 -4 -8 -10 -11 -5 -3 -10 -1 -10 4 0 6 5 11 10 11 6 0 10 -2 10 -4z m-66
-27 c-31 -12 -39 -10 -19 5 11 8 24 12 29 8 5 -3 1 -9 -10 -13z m-1980 -46
c-5 -15 -3 -15 10 1 12 15 19 17 27 9 8 -8 6 -20 -7 -42 -21 -35 -29 -38 -38
-15 -3 8 -10 12 -16 9 -14 -9 -13 11 2 35 16 25 29 26 22 3z m616 -56 c0 -5
-4 -5 -10 -2 -5 3 -10 14 -10 23 0 15 2 15 10 2 5 -8 10 -19 10 -23z m-330 6
c-1 -5 -7 -19 -15 -33 -10 -18 -14 -20 -15 -8 0 23 11 48 21 48 5 0 9 -3 9 -7z
m-333 -60 c-16 -16 -17 -16 -17 3 0 11 3 24 7 27 4 4 11 3 17 -3 7 -7 5 -16
-7 -27z m893 16 c0 -28 -121 -111 -138 -95 -10 11 94 102 115 102 13 -1 23 -4
23 -7z m-901 -61 c-9 -16 -9 -23 0 -26 18 -6 13 -22 -11 -31 -18 -7 -25 -4
-31 12 -5 13 -3 23 5 28 7 5 14 13 14 19 3 19 4 20 19 20 13 0 14 -4 4 -22z
m-622 -34 c-3 -3 -12 -4 -19 -1 -8 3 -5 6 6 6 11 1 17 -2 13 -5z m1638 -59 c2
-16 -4 -34 -16 -46 -20 -20 -34 -26 -24 -9 12 20 -14 10 -28 -11 -10 -13 -17
-17 -22 -9 -5 8 -11 8 -21 -1 -24 -20 -119 -4 -169 28 -25 15 -45 32 -45 36 0
5 10 1 22 -7 13 -9 26 -12 32 -7 6 5 29 11 51 14 130 17 136 19 158 49 21 28
21 28 40 9 11 -10 21 -31 22 -46z m-1155 8 c0 -7 -7 -10 -15 -6 -13 4 -12 -3
5 -35 12 -23 27 -39 33 -37 7 2 24 -13 39 -35 15 -21 21 -37 14 -34 -8 3 -21
-5 -30 -18 l-16 -23 -6 23 c-4 12 -11 22 -16 22 -5 0 -8 8 -6 18 2 9 -3 16 -9
15 -7 -2 -13 2 -13 9 0 6 -6 19 -14 27 -7 9 -16 33 -20 53 -7 37 -6 37 24 35
16 -1 30 -7 30 -14z m-496 -9 c3 -8 11 -12 17 -8 7 4 10 3 7 -2 -3 -5 5 -17
18 -27 17 -13 24 -14 24 -5 1 15 40 -29 40 -45 0 -5 -8 -3 -18 6 -10 10 -23
17 -29 17 -12 0 -83 63 -83 73 0 13 18 7 24 -9z m160 -10 c3 -8 2 -12 -4 -9
-6 3 -10 10 -10 16 0 14 7 11 14 -7z m446 -26 c0 -15 5 -18 16 -14 14 5 15 4
4 -9 -22 -27 -35 -15 -46 44 -4 21 -3 23 11 11 8 -7 15 -21 15 -32z m510 10
c0 -5 -4 -8 -10 -8 -5 0 -10 10 -10 23 0 18 2 19 10 7 5 -8 10 -18 10 -22z
m-936 -87 c-7 -8 -14 6 -19 40 l-5 34 14 -35 c7 -19 12 -37 10 -39z m452 23
c-4 -12 -2 -15 9 -11 8 4 19 -1 24 -11 5 -9 12 -16 15 -14 4 1 21 -5 39 -15
26 -14 28 -18 14 -21 -27 -6 -60 5 -90 29 -27 20 -37 59 -16 59 6 0 8 -7 5
-16z m867 -43 c18 -2 1 -55 -24 -73 -20 -16 -30 -17 -53 -8 -31 11 -31 15 3
57 15 18 32 29 45 27 11 -1 25 -3 29 -3z m91 -23 c19 -37 19 -38 6 -38 -14 0
-43 48 -35 60 9 15 12 13 29 -22z m-1024 -19 c0 -11 -4 -18 -10 -14 -5 3 -7
12 -3 20 7 21 13 19 13 -6z m107 -13 c7 -1 27 -12 44 -25 31 -23 35 -48 6 -43
-9 2 -25 -2 -36 -7 -14 -8 -22 -6 -35 8 -9 10 -13 20 -10 24 3 3 -3 3 -15 0
-12 -3 -21 -1 -21 6 0 6 -7 11 -15 11 -19 0 -8 27 13 33 10 3 26 3 37 1 11 -3
26 -6 32 -8z m712 -9 c-2 -1 -15 -11 -29 -22 l-25 -20 19 23 c11 12 24 22 29
22 6 0 8 -1 6 -3z m-1283 -73 c-4 -14 -9 -24 -12 -21 -3 2 -2 17 2 31 3 15 9
25 11 22 3 -3 2 -17 -1 -32z m761 -14 c-1 -29 4 -44 18 -55 11 -8 15 -15 8
-15 -6 0 -14 4 -18 9 -3 6 -14 9 -25 8 -18 -1 -24 -10 -21 -29 2 -12 -17 -10
-24 2 -3 6 -18 10 -32 10 -18 0 -24 4 -19 15 3 8 1 15 -4 15 -6 0 -10 8 -10
18 0 22 35 45 80 53 19 3 38 7 42 8 4 0 6 -17 5 -39z m-167 0 c0 -5 -5 -10
-11 -10 -5 0 -7 5 -4 10 3 6 8 10 11 10 2 0 4 -4 4 -10z m-578 -22 c-7 -7 -12
-8 -12 -2 0 14 12 26 19 19 2 -3 -1 -11 -7 -17z m824 -15 c-10 -10 -19 5 -10
18 6 11 8 11 12 0 2 -7 1 -15 -2 -18z m-16 -49 c0 -8 -4 -12 -10 -9 -5 3 -10
10 -10 16 0 5 5 9 10 9 6 0 10 -7 10 -16z m275 -324 c3 -5 1 -10 -4 -10 -6 0
-11 5 -11 10 0 6 2 10 4 10 3 0 8 -4 11 -10z m-1285 -290 c0 -5 -7 -10 -16
-10 -8 0 -12 5 -9 10 3 6 10 10 16 10 5 0 9 -4 9 -10z m3214 -279 c3 -5 -1
-11 -9 -15 -9 -3 -15 0 -15 9 0 16 16 20 24 6z m-2282 -139 c-7 -2 -12 -8 -12
-14 0 -6 7 -8 15 -4 8 3 15 4 15 2 0 -3 3 -11 6 -19 5 -13 0 -13 -29 1 -35 18
-40 48 -8 54 18 4 30 -14 13 -20z m1349 -45 c-10 -9 -11 -8 -5 6 3 10 9 15 12
12 3 -3 0 -11 -7 -18z m294 -7 c-3 -5 -11 -10 -16 -10 -6 0 -7 5 -4 10 3 6 11
10 16 10 6 0 7 -4 4 -10z m-1585 -10 c0 -5 -5 -10 -11 -10 -5 0 -7 5 -4 10 3
6 8 10 11 10 2 0 4 -4 4 -10z m920 -59 c0 -5 -7 -14 -15 -21 -8 -7 -15 -10
-15 -7 0 3 -3 12 -6 21 -4 12 0 16 15 16 12 0 21 -4 21 -9z m240 -70 c0 -11 7
-26 15 -35 19 -19 3 -31 -23 -17 -10 5 -28 8 -39 5 -12 -4 -22 0 -26 9 -4 10
1 13 19 9 14 -2 24 0 24 7 0 6 -6 11 -12 11 -14 1 20 30 34 30 4 0 8 -9 8 -19z
m-1196 -30 c3 -4 -3 -19 -14 -31 l-20 -23 -9 24 c-5 16 -5 26 3 31 15 10 34
10 40 -1z m153 -37 c-9 -9 -28 6 -21 18 4 6 10 6 17 -1 6 -6 8 -13 4 -17z m-1
-17 c7 2 18 -10 25 -27 13 -29 34 -44 23 -16 -3 7 3 16 12 20 22 8 54 -21 59
-55 13 -77 14 -98 5 -104 -22 -14 -8 -24 17 -12 21 9 27 9 31 -1 5 -16 69 -16
76 1 5 10 7 10 12 0 3 -7 12 -13 20 -13 9 0 12 5 9 10 -3 6 0 10 9 10 8 0 17
-6 19 -12 4 -9 6 -7 6 3 1 13 28 18 51 9 3 -1 8 -2 13 -1 4 0 6 -2 6 -6 -4
-22 3 -31 19 -27 10 3 32 -10 55 -31 21 -19 42 -35 48 -35 5 0 9 -7 9 -16 0
-10 6 -14 14 -11 16 6 28 -16 20 -36 -3 -8 2 -20 11 -27 10 -8 15 -9 15 -2 0
6 7 9 16 5 8 -3 13 -12 10 -19 -3 -8 -2 -13 2 -11 4 1 7 -1 7 -5 0 -4 9 -14
20 -23 11 -9 14 -14 8 -10 -7 3 -13 1 -13 -4 0 -6 4 -11 10 -11 5 0 9 -3 8 -7
-3 -13 32 -73 42 -73 6 0 10 10 11 23 0 12 3 16 6 10 2 -7 11 -13 19 -13 8 0
14 -8 14 -17 1 -16 2 -16 13 -2 14 19 37 14 37 -8 0 -12 3 -13 14 -4 7 6 21 9
30 5 9 -3 16 -1 16 5 0 6 7 11 15 11 9 0 12 -6 9 -15 -7 -18 6 -19 40 -4 20 9
33 8 69 -7 25 -10 44 -21 42 -25 -3 -3 5 -16 16 -27 11 -12 16 -22 12 -22 -4
0 -2 -5 5 -12 9 -9 15 -8 25 7 13 17 14 17 12 -4 -1 -13 -13 -28 -28 -36 -25
-13 -27 -12 -28 8 0 15 -2 17 -6 7 -11 -26 -36 -46 -41 -32 -2 7 -8 10 -13 7
-5 -3 -18 -1 -29 5 -13 7 -20 7 -20 0 0 -5 -4 -10 -10 -10 -5 0 -10 19 -10 43
0 30 -3 38 -10 27 -5 -8 -7 -25 -4 -36 3 -12 1 -25 -5 -28 -6 -4 -11 0 -11 9
0 9 -4 14 -8 11 -5 -3 -15 4 -22 15 -19 25 -33 25 -25 -1 4 -11 2 -20 -4 -20
-15 0 -14 33 2 49 10 11 9 13 -6 8 -11 -4 -16 -3 -12 3 3 6 0 10 -8 10 -8 0
-27 10 -42 21 l-27 22 4 -24 c3 -21 -1 -24 -32 -24 -26 0 -36 -5 -38 -19 -3
-15 0 -18 17 -13 12 3 24 0 28 -5 3 -7 1 -8 -5 -4 -7 4 -12 2 -12 -4 0 -7 -6
-10 -14 -7 -9 4 -12 0 -9 -13 3 -11 11 -16 19 -13 18 7 18 -14 0 -24 -16 -9
-10 -63 6 -63 6 0 8 7 4 15 -3 9 0 15 9 15 11 0 12 -5 5 -26 -13 -34 -13 -37
4 -31 10 4 13 1 10 -7 -3 -8 0 -17 7 -22 8 -4 10 -3 5 4 -13 21 22 13 44 -10
22 -23 26 -18 10 12 -6 11 -6 21 -1 24 8 5 26 -40 23 -56 -1 -5 3 -8 8 -8 6 0
8 -11 4 -26 -5 -18 -3 -25 3 -21 6 4 14 0 17 -9 3 -9 13 -14 21 -10 8 3 17 1
21 -5 4 -6 11 -6 20 2 17 14 84 19 84 7 0 -4 -5 -8 -11 -8 -5 0 -7 -5 -3 -12
4 -6 -1 -17 -10 -23 -9 -7 -19 -25 -22 -39 -4 -21 0 -26 18 -27 22 -2 42 -4
62 -8 5 0 3 -8 -4 -16 -11 -13 -80 -15 -511 -15 -320 0 -500 4 -504 10 -11 17
-14 50 -6 50 5 0 12 16 15 35 7 34 -9 79 -39 115 -7 8 -16 35 -19 59 -3 25
-10 49 -16 55 -5 5 -10 27 -10 48 0 29 -3 36 -15 32 -8 -4 -15 -1 -15 5 0 6 4
11 9 11 13 0 22 42 11 55 -5 6 -3 18 6 29 8 11 14 25 14 32 0 19 -39 24 -56 6
-12 -12 -17 -13 -24 -3 -10 17 -2 47 16 62 8 6 14 18 14 26 0 8 4 12 9 9 11
-7 21 17 21 50 0 15 -6 24 -15 24 -18 0 -19 12 -3 28 9 9 7 16 -10 32 -22 20
-29 41 -14 39 4 -1 16 -1 27 0 19 2 18 3 -2 11 -24 10 -31 44 -13 55 6 4 8 11
4 16 -3 5 -10 7 -15 4 -5 -4 -17 1 -26 10 -14 14 -14 18 -2 25 10 7 8 9 -9 7
-17 -1 -21 -6 -16 -20 9 -28 -18 -17 -33 13 -7 13 -21 28 -32 32 -24 8 -28 28
-7 28 9 0 12 7 9 20 -7 25 12 26 26 3 6 -10 11 -12 11 -5 0 17 25 15 44 -3 19
-19 46 -19 46 -1 0 8 5 18 12 22 6 4 8 3 4 -4 -3 -6 -2 -13 3 -16 17 -11 24
17 8 29 -23 16 -21 25 3 25 11 0 20 -7 20 -15 0 -8 7 -15 16 -15 10 0 12 5 7
13 -4 6 -9 21 -10 31 -3 18 -2 18 14 4 10 -8 23 -14 29 -11z m1019 -8 c11 -17
-1 -21 -15 -4 -8 9 -8 15 -2 15 6 0 14 -5 17 -11z m48 -16 c-4 -11 -3 -14 5
-9 7 4 12 3 12 -2 0 -17 -13 -22 -27 -11 -10 9 -10 15 -2 25 15 19 20 18 12
-3z m-23 -59 c0 -8 -4 -12 -10 -9 -5 3 -10 10 -10 16 0 5 5 9 10 9 6 0 10 -7
10 -16z m925 -94 c-3 -5 -12 -10 -18 -10 -7 0 -6 4 3 10 19 12 23 12 15 0z
m-38 -16 c-3 -3 -12 -4 -19 -1 -8 3 -5 6 6 6 11 1 17 -2 13 -5z m-423 -426 c5
-22 12 -28 34 -28 16 0 95 -16 178 -35 82 -20 181 -42 219 -51 100 -22 374
-112 415 -137 31 -18 50 -20 170 -18 74 1 162 -4 195 -10 33 -6 69 -12 80 -14
11 -1 33 -7 48 -14 16 -6 31 -11 33 -11 8 0 175 -85 214 -109 l35 -21 -663 0
-663 0 -27 45 c-15 25 -51 84 -79 130 -29 46 -53 87 -53 90 0 4 -6 13 -14 21
-8 7 -12 23 -9 34 3 11 0 20 -6 20 -6 0 -11 -4 -11 -9 0 -5 -12 -8 -27 -7 -17
2 -28 9 -28 19 0 9 -4 19 -8 23 -16 17 -5 -40 13 -66 26 -37 80 -157 80 -179
0 -9 4 -21 9 -27 5 -5 12 -28 16 -51 l7 -43 -105 0 c-113 0 -121 4 -106 50 13
39 27 140 19 140 -4 0 -5 30 -3 68 6 114 6 255 0 302 -6 38 -4 34 12 -20 11
-36 22 -77 25 -92z m-1518 -324 c-3 -12 -1 -25 4 -27 6 -3 5 -4 -2 -3 -18 4
-29 53 -11 53 10 0 13 -7 9 -23z m1422 -546 c24 -24 14 -74 -19 -102 -29 -25
-49 -33 -49 -20 0 3 11 15 25 26 30 24 32 44 5 51 -19 5 -27 36 -13 50 10 11
38 8 51 -5z m-3481 -4 c-6 -6 17 -57 52 -116 l19 -30 36 62 c20 33 36 68 36
76 0 10 12 14 43 14 l42 0 0 -130 0 -130 -39 0 c-32 0 -36 2 -27 14 7 9 11 42
9 88 l-3 73 -48 -87 c-27 -49 -50 -88 -53 -88 -2 0 -19 30 -38 68 -56 107 -57
107 -54 14 l3 -82 -35 0 -35 0 0 130 0 130 49 0 c27 0 47 -3 43 -6z m4163 -11
c1 -10 27 -69 59 -130 l58 -113 -44 0 c-23 0 -42 3 -41 8 1 4 -1 17 -6 30 -7
20 -14 22 -71 22 -57 0 -64 -2 -71 -22 -5 -13 -7 -26 -6 -30 1 -5 -14 -8 -33
-8 l-35 0 60 120 c33 67 58 125 55 130 -4 6 11 10 34 10 32 0 41 -4 41 -17z
m-2870 -35 c0 -22 -3 -23 -70 -20 l-70 4 0 -32 0 -32 50 4 c48 3 50 2 50 -22
0 -24 -2 -25 -50 -22 -49 4 -50 3 -50 -23 l0 -27 75 4 c74 3 75 3 75 -22 l0
-25 -102 3 -103 3 0 107 0 107 95 6 c52 3 96 6 98 7 1 1 2 -8 2 -20z m1480 0
c0 -22 -3 -23 -70 -20 l-70 4 0 -32 0 -32 50 4 c48 3 50 2 50 -22 0 -24 -2
-25 -50 -22 -49 4 -50 3 -50 -23 l0 -27 75 4 c74 3 75 3 75 -22 l0 -25 -102 3
-103 3 0 107 0 107 95 6 c52 3 96 6 98 7 1 1 2 -8 2 -20z m1760 -9 c0 -26 -2
-26 -46 -21 l-45 5 3 -92 3 -91 -30 0 -30 0 3 91 3 92 -45 -5 c-44 -5 -46 -5
-46 21 l0 26 115 0 115 0 0 -26z m250 9 c0 -22 -3 -23 -70 -20 l-70 4 0 -32 0
-32 50 4 c48 3 50 2 50 -22 0 -24 -2 -25 -50 -22 -49 4 -50 3 -50 -23 l0 -27
75 4 c74 3 75 3 75 -22 l0 -25 -102 3 -103 3 0 107 0 107 95 6 c52 3 96 6 98
7 1 1 2 -8 2 -20z m720 0 c0 -22 -3 -23 -70 -20 l-70 4 0 -32 0 -32 50 4 c48
3 50 2 50 -22 0 -24 -2 -25 -50 -22 -49 4 -50 3 -50 -23 l0 -27 75 4 c74 3 75
3 75 -22 l0 -25 -102 3 -103 3 0 107 0 107 95 6 c52 3 96 6 98 7 1 1 2 -8 2
-20z m-5105 -98 l0 -110 -40 1 c-22 0 -34 3 -27 6 8 3 12 34 12 103 0 69 -4
100 -12 103 -7 3 5 6 27 6 l40 1 0 -110z m262 92 c27 -15 30 -19 19 -34 -12
-17 -15 -17 -45 -2 -34 17 -82 14 -108 -7 -18 -16 -17 -74 3 -93 8 -9 26 -19
39 -22 28 -7 95 13 95 28 0 6 9 3 20 -7 28 -25 26 -31 -20 -49 -109 -44 -206
4 -203 100 1 37 31 79 68 94 33 14 98 10 132 -8z m165 -27 l-4 -45 67 0 67 0
-4 45 c-3 44 -3 45 27 45 l30 0 0 -110 0 -110 -30 0 c-30 0 -30 1 -27 45 l4
45 -67 0 -67 0 4 -45 c3 -44 3 -45 -27 -45 l-30 0 0 110 0 110 30 0 c30 0 30
-1 27 -45z m610 -46 l-3 -91 80 3 c81 4 81 4 81 -21 l0 -25 -107 3 -108 3 0
110 0 109 30 0 30 0 -3 -91z m355 78 c0 -7 20 -56 46 -110 l46 -97 -36 0 c-20
0 -33 3 -30 6 3 4 2 15 -4 25 -13 25 -114 28 -123 3 -3 -9 -4 -20 0 -25 3 -5
-11 -9 -30 -9 l-35 0 36 78 c20 42 41 92 47 110 10 28 15 32 47 32 22 0 36 -5
36 -13z m219 5 c-3 -5 24 -37 60 -73 l65 -64 -3 73 -3 72 28 0 27 0 0 -110 0
-110 -27 1 c-21 1 -44 19 -93 74 -36 40 -69 73 -73 74 -5 1 -7 -33 -5 -74 3
-74 3 -75 -22 -75 l-25 0 0 110 0 110 38 0 c21 0 36 -4 33 -8z m435 -4 c22 -6
39 -14 39 -17 -1 -13 -29 -55 -30 -44 0 22 -73 37 -114 23 -63 -20 -63 -99 -1
-120 45 -15 115 -4 115 17 0 12 -8 15 -40 10 -37 -5 -40 -4 -40 20 0 19 4 24
16 19 9 -3 37 -6 62 -6 l47 0 -3 -45 c-4 -40 -7 -45 -39 -56 -19 -6 -62 -9
-94 -7 -48 3 -65 10 -89 33 -39 38 -43 110 -7 142 49 45 102 54 178 31z m471
-79 l-3 -91 80 3 c81 4 81 4 81 -21 l0 -25 -107 3 -108 3 0 110 0 109 30 0 30
0 -3 -91z m395 74 c74 -35 79 -140 10 -184 -26 -16 -45 -19 -96 -16 -57 3 -67
7 -92 35 -31 35 -38 86 -18 123 29 54 127 75 196 42z m428 0 c19 -9 35 -20 35
-23 0 -12 -29 -45 -30 -33 0 17 -73 37 -104 29 -45 -11 -31 -33 27 -41 59 -8
102 -27 110 -49 17 -44 -31 -86 -99 -86 -29 0 -108 17 -122 26 -1 1 3 13 9 28
12 25 29 35 29 17 0 -16 68 -33 100 -26 17 4 30 13 30 21 0 13 -9 17 -79 28
-79 14 -106 65 -55 105 33 26 99 28 149 4z m1187 -74 l-3 -91 80 3 c81 4 81 4
81 -21 l0 -25 -107 3 -108 3 0 110 0 109 30 0 30 0 -3 -91z m293 -19 l0 -110
-40 1 c-22 0 -34 3 -27 6 8 3 12 34 12 103 0 69 -4 100 -12 103 -7 3 5 6 27 6
l40 1 0 -110z m573 94 c31 -21 29 -67 -4 -93 l-26 -20 32 -46 31 -45 -41 0
c-24 0 -39 4 -35 10 3 5 -5 25 -17 44 -19 29 -29 36 -57 36 l-33 0 4 -45 c3
-44 3 -45 -27 -45 l-30 0 0 110 0 110 90 0 c66 0 97 -4 113 -16z"/>
<path d="M4995 8211 c22 -11 62 -14 53 -5 -4 3 -21 7 -40 10 -26 3 -29 2 -13
-5z"/>
<path d="M4943 8185 c0 -11 3 -12 14 -3 10 8 17 8 21 2 9 -13 40 -26 72 -29
17 -2 8 5 -25 21 -58 27 -82 30 -82 9z"/>
<path d="M4970 8130 c0 -5 5 -10 11 -10 5 0 7 5 4 10 -3 6 -8 10 -11 10 -2 0
-4 -4 -4 -10z"/>
<path d="M5676 8071 c-12 -5 -15 -10 -9 -14 6 -4 16 0 23 8 14 17 13 17 -14 6z"/>
<path d="M5717 8059 c7 -7 15 -10 18 -7 3 3 -2 9 -12 12 -14 6 -15 5 -6 -5z"/>
<path d="M5850 8049 c0 -5 5 -7 10 -4 6 3 10 8 10 11 0 2 -4 4 -10 4 -5 0 -10
-5 -10 -11z"/>
<path d="M5560 8039 c0 -5 11 -9 25 -9 14 0 25 4 25 9 0 5 -11 9 -25 9 -14 0
-25 -4 -25 -9z"/>
<path d="M5888 8043 c7 -3 16 -2 19 1 4 3 -2 6 -13 5 -11 0 -14 -3 -6 -6z"/>
<path d="M4435 8021 c-17 -7 -17 -8 8 -13 19 -4 27 -1 27 8 0 15 -6 16 -35 5z"/>
<path d="M6143 8000 c-24 -11 -43 -26 -43 -35 0 -16 9 -18 75 -16 22 1 46 -3
54 -8 9 -6 20 -5 31 1 14 9 15 15 6 34 -6 13 -15 24 -19 24 -5 0 -5 -5 -1 -12
4 -7 -6 -2 -23 10 -17 12 -33 22 -35 21 -1 0 -22 -9 -45 -19z"/>
<path d="M5515 7980 c-3 -5 -1 -10 4 -10 6 0 11 5 11 10 0 6 -2 10 -4 10 -3 0
-8 -4 -11 -10z"/>
<path d="M5617 7963 c-4 -3 -7 -11 -7 -17 0 -6 5 -5 12 2 6 6 9 14 7 17 -3 3
-9 2 -12 -2z"/>
<path d="M6265 7930 c3 -5 8 -10 11 -10 2 0 4 5 4 10 0 6 -5 10 -11 10 -5 0
-7 -4 -4 -10z"/>
<path d="M6290 7918 c0 -4 6 -8 14 -8 8 0 21 -3 30 -6 10 -4 16 -1 16 8 0 10
-11 15 -30 15 -16 0 -30 -4 -30 -9z"/>
<path d="M6930 7888 c0 -4 4 -8 9 -8 6 0 12 4 15 8 3 5 -1 9 -9 9 -8 0 -15 -4
-15 -9z"/>
<path d="M5168 7879 c-8 -4 -31 -9 -51 -11 -21 -1 -37 -5 -37 -8 0 -8 184 -80
203 -80 9 0 17 -6 20 -12 2 -7 8 -10 12 -6 15 14 -12 62 -45 79 -18 10 -36 22
-39 27 -9 14 -47 20 -63 11z"/>
<path d="M6775 7840 c3 -5 8 -10 11 -10 2 0 4 5 4 10 0 6 -5 10 -11 10 -5 0
-7 -4 -4 -10z"/>
<path d="M3717 7820 c-15 -9 -30 -20 -35 -24 -12 -12 21 -2 35 11 7 6 18 13
25 16 7 2 11 7 8 9 -3 3 -17 -2 -33 -12z"/>
<path d="M6595 7830 c3 -5 10 -10 16 -10 5 0 9 5 9 10 0 6 -7 10 -16 10 -8 0
-12 -4 -9 -10z"/>
<path d="M6635 7830 c-4 -6 3 -10 14 -10 25 0 27 6 6 13 -8 4 -17 2 -20 -3z"/>
<path d="M6152 7800 c2 -7 33 -23 68 -36 56 -22 80 -24 204 -24 78 0 152 2
166 5 14 3 40 8 58 11 17 3 32 10 32 15 0 11 -19 12 -132 9 -49 -1 -88 2 -88
6 0 5 -30 9 -67 10 -38 0 -108 4 -157 8 -69 7 -88 6 -84 -4z"/>
<path d="M5855 7768 c10 -31 21 -42 27 -26 2 7 -4 21 -15 31 -19 19 -19 18
-12 -5z"/>
<path d="M6753 7755 c-10 -10 -9 -14 4 -19 8 -4 21 -2 28 4 9 8 14 7 18 -3 3
-8 16 -17 29 -20 21 -5 21 -4 -6 18 -17 13 -34 21 -39 18 -5 -3 -12 -1 -16 5
-4 6 -10 5 -18 -3z"/>
<path d="M4648 7746 c-15 -8 -53 -19 -85 -24 -86 -14 -83 -12 -150 -79 -64
-63 -87 -108 -62 -123 19 -12 32 -1 18 16 -7 9 -8 14 -1 14 6 0 14 -5 17 -10
9 -15 27 -1 21 16 -3 9 2 14 14 14 21 0 62 34 53 44 -4 3 7 6 23 6 17 0 39 7
50 15 10 8 26 15 35 15 9 0 28 11 43 25 15 14 31 25 36 25 4 0 15 3 24 6 12 5
16 0 16 -20 0 -14 -3 -25 -7 -23 -5 1 -9 -2 -11 -8 -2 -5 12 -14 30 -18 45
-12 55 -31 20 -37 -15 -3 -26 -10 -26 -15 2 -15 64 -42 112 -48 40 -5 47 -2
83 30 21 19 39 44 39 55 0 18 -5 19 -47 14 -27 -2 -64 -10 -83 -15 -19 -6 -38
-7 -43 -2 -4 4 10 11 32 15 23 3 41 12 41 19 0 8 4 7 10 -3 8 -12 10 -12 10
-1 0 8 7 11 20 8 12 -3 35 -1 53 4 18 6 48 10 67 10 35 1 84 34 74 50 -3 5
-21 9 -40 9 -19 0 -34 5 -34 10 0 7 -6 7 -19 0 -25 -13 -34 -13 -26 0 3 6 2
10 -4 10 -5 0 -11 -5 -13 -11 -4 -13 -43 -20 -110 -20 -26 1 -50 -4 -53 -9 -4
-6 -11 -8 -16 -5 -5 4 -9 1 -9 -4 0 -6 -5 -11 -11 -11 -5 0 -7 5 -3 12 4 7 3
8 -5 4 -18 -11 -42 14 -36 35 8 23 -9 24 -47 5z m402 -41 c-7 -9 -15 -13 -19
-10 -3 3 1 10 9 15 21 14 24 12 10 -5z"/>
<path d="M5700 7726 c0 -2 7 -9 15 -16 13 -11 14 -10 9 4 -5 14 -24 23 -24 12z"/>
<path d="M6915 7710 c3 -5 8 -10 11 -10 2 0 4 5 4 10 0 6 -5 10 -11 10 -5 0
-7 -4 -4 -10z"/>
<path d="M6140 7689 c0 -6 9 -13 20 -16 11 -3 20 -10 20 -17 0 -17 60 -53 117
-70 51 -14 140 -15 162 -1 25 15 7 25 -45 25 -56 0 -130 16 -148 32 -6 4 -20
8 -31 8 -12 0 -30 8 -41 18 -25 23 -54 34 -54 21z"/>
<path d="M7290 7676 c0 -5 -26 -6 -60 -3 -34 4 -60 3 -60 -2 0 -12 20 -18 87
-26 39 -5 57 -3 77 10 14 9 30 14 35 10 6 -3 9 0 6 7 -6 15 -85 19 -85 4z"/>
<path d="M5030 7650 c0 -5 4 -10 9 -10 6 0 13 5 16 10 3 6 -1 10 -9 10 -9 0
-16 -4 -16 -10z"/>
<path d="M4090 7639 c0 -5 5 -7 10 -4 6 3 10 8 10 11 0 2 -4 4 -10 4 -5 0 -10
-5 -10 -11z"/>
<path d="M6625 7634 c-16 -7 -54 -18 -83 -24 -70 -15 -61 -22 14 -12 83 10
205 -2 216 -22 5 -9 15 -16 22 -16 7 0 21 -9 31 -20 25 -28 35 -25 35 11 0 38
-14 65 -43 81 -32 17 -156 19 -192 2z"/>
<path d="M3626 7621 c-11 -17 22 -25 47 -12 22 11 22 11 -2 5 -14 -4 -27 -1
-31 6 -5 9 -9 9 -14 1z"/>
<path d="M5143 7599 c-7 -7 -46 -11 -91 -11 -77 0 -80 -1 -96 -29 -9 -16 -24
-29 -32 -29 -8 0 -17 -13 -20 -30 -4 -16 -11 -30 -16 -30 -6 0 -8 -7 -4 -15 4
-12 -4 -14 -52 -10 -90 7 -146 5 -153 -6 -3 -6 -9 -10 -13 -10 -20 3 -16 -1
19 -20 22 -12 49 -21 59 -21 53 2 115 -71 116 -136 0 -13 8 -25 18 -28 34 -11
83 -39 98 -56 13 -13 21 -14 46 -6 16 6 25 14 19 17 -6 4 -12 18 -13 31 -3 22
3 26 47 38 28 7 76 11 108 9 50 -3 62 -8 95 -40 31 -30 40 -34 54 -23 9 6 19
29 23 49 4 20 10 37 14 37 4 0 7 33 6 73 -2 61 -5 77 -23 95 -12 12 -22 27
-22 32 0 6 -4 10 -10 10 -5 0 -7 -8 -4 -17 5 -14 2 -14 -13 3 -14 15 -28 21
-49 18 -27 -3 -30 -1 -29 26 0 16 6 35 13 42 15 15 16 28 2 28 -5 0 -10 -7
-10 -15 0 -8 -20 -25 -44 -36 -35 -18 -53 -20 -92 -14 l-49 7 45 21 c46 22 76
45 68 52 -2 3 -9 0 -15 -6z m44 -241 c-4 -26 -70 -63 -95 -53 -13 5 -11 9 8
30 12 13 28 21 36 18 8 -3 17 2 20 11 10 25 34 20 31 -6z"/>
<path d="M5290 7596 c0 -9 5 -16 10 -16 6 0 10 4 10 9 0 6 -4 13 -10 16 -5 3
-10 -1 -10 -9z"/>
<path d="M5398 7593 c7 -3 16 -2 19 1 4 3 -2 6 -13 5 -11 0 -14 -3 -6 -6z"/>
<path d="M4150 7580 c0 -5 5 -10 11 -10 5 0 7 5 4 10 -3 6 -8 10 -11 10 -2 0
-4 -4 -4 -10z"/>
<path d="M4552 7579 c4 -9 2 -21 -4 -27 -8 -8 -5 -9 11 -5 25 6 26 10 4 31
-15 15 -16 15 -11 1z"/>
<path d="M5325 7580 c-3 -5 -18 -11 -33 -11 -20 -1 -22 -3 -7 -6 27 -5 72 11
57 21 -6 3 -13 2 -17 -4z"/>
<path d="M6000 7575 c7 -9 15 -13 17 -11 7 7 -7 26 -19 26 -6 0 -6 -6 2 -15z"/>
<path d="M3920 7574 c0 -3 7 -12 15 -20 16 -17 18 -14 9 10 -6 15 -24 23 -24
10z"/>
<path d="M5487 7564 c-11 -11 -8 -26 3 -19 13 8 13 -5 0 -25 -8 -12 -10 -12
-10 -1 0 8 -3 11 -7 8 -6 -7 30 -47 41 -47 3 0 1 11 -4 24 -5 13 -6 26 -3 29
2 3 1 13 -4 22 -5 8 -12 12 -16 9z"/>
<path d="M5517 7554 c3 -7 9 -14 14 -14 14 0 10 17 -5 23 -10 4 -13 1 -9 -9z"/>
<path d="M4130 7540 c0 -5 5 -10 11 -10 5 0 7 5 4 10 -3 6 -8 10 -11 10 -2 0
-4 -4 -4 -10z"/>
<path d="M5390 7543 c0 -4 9 -17 21 -29 11 -12 21 -34 23 -50 2 -16 6 -28 10
-26 3 1 10 2 15 2 5 0 5 16 0 38 -4 20 -8 38 -9 40 0 1 0 10 0 20 0 13 -2 14
-9 3 -6 -9 -11 -10 -15 -2 -8 12 -36 15 -36 4z"/>
<path d="M5280 7522 c0 -4 11 -9 25 -10 14 -1 25 3 25 8 0 6 -11 10 -25 10
-14 0 -25 -4 -25 -8z"/>
<path d="M4516 7506 c-15 -9 -32 -13 -38 -10 -5 3 -4 -3 3 -14 21 -34 68 -34
158 0 35 13 13 30 -46 35 -31 3 -58 -1 -77 -11z"/>
<path d="M4330 7490 c0 -11 7 -20 15 -20 17 0 18 2 9 24 -9 23 -24 20 -24 -4z"/>
<path d="M6500 7496 c0 -2 7 -7 16 -10 8 -3 12 -2 9 4 -6 10 -25 14 -25 6z"/>
<path d="M4800 7470 c-13 -8 -13 -10 2 -10 9 0 20 5 23 10 8 13 -5 13 -25 0z"/>
<path d="M6576 7470 c-17 -6 -16 -9 15 -38 18 -17 35 -29 38 -26 3 2 -1 10 -7
16 -14 14 -16 32 -3 23 5 -3 12 -1 16 5 5 9 -1 12 -21 9 -4 0 -10 4 -13 9 -3
5 -15 6 -25 2z"/>
<path d="M5490 7450 c0 -5 5 -10 10 -10 6 0 10 5 10 10 0 6 -4 10 -10 10 -5 0
-10 -4 -10 -10z"/>
<path d="M6470 7450 c0 -5 5 -10 11 -10 5 0 7 5 4 10 -3 6 -8 10 -11 10 -2 0
-4 -4 -4 -10z"/>
<path d="M5430 7400 c-14 -11 -20 -20 -15 -19 13 0 50 28 44 33 -2 3 -15 -4
-29 -14z"/>
<path d="M6257 7396 c-15 -12 -11 -13 32 -12 51 1 56 10 11 20 -14 3 -33 0
-43 -8z"/>
<path d="M3770 7380 c0 -5 7 -10 16 -10 8 0 12 5 9 10 -3 6 -10 10 -16 10 -5
0 -9 -4 -9 -10z"/>
<path d="M6613 7368 c0 -13 1 -17 4 -10 3 6 10 9 16 5 7 -4 6 1 -2 10 -17 21
-17 21 -18 -5z"/>
<path d="M6675 7380 c3 -5 10 -10 16 -10 5 0 9 5 9 10 0 6 -7 10 -16 10 -8 0
-12 -4 -9 -10z"/>
<path d="M6740 7382 c0 -12 19 -26 26 -19 2 2 -2 10 -11 17 -9 8 -15 8 -15 2z"/>
<path d="M4740 7358 c0 -7 5 -20 10 -28 8 -12 10 -11 10 7 0 12 -4 25 -10 28
-5 3 -10 0 -10 -7z"/>
<path d="M5428 7363 c-10 -2 -18 -8 -18 -13 0 -4 8 -11 18 -15 16 -6 16 -7 -2
-21 -11 -8 -15 -14 -9 -14 15 0 26 18 29 47 2 13 2 22 1 22 -1 -1 -10 -3 -19
-6z"/>
<path d="M6260 7366 c0 -2 9 -6 20 -9 11 -3 18 -1 14 4 -5 9 -34 13 -34 5z"/>
<path d="M6810 7347 c0 -5 13 -7 29 -4 16 4 31 2 33 -4 2 -6 19 -4 43 5 l40
15 -72 -1 c-41 0 -73 -5 -73 -11z"/>
<path d="M5811 7341 c-8 -5 -9 -11 -3 -15 5 -3 12 1 16 9 6 17 6 18 -13 6z"/>
<path d="M4624 7317 c3 -10 6 -27 6 -38 0 -10 5 -19 11 -19 13 0 3 50 -13 65
-8 7 -9 4 -4 -8z"/>
<path d="M4504 7275 c-18 -14 -18 -14 4 -8 12 3 22 9 22 14 0 12 -3 11 -26 -6z"/>
<path d="M4766 7271 c-4 -7 -5 -15 -2 -18 9 -9 19 4 14 18 -4 11 -6 11 -12 0z"/>
<path d="M4646 7225 c4 -8 8 -15 10 -15 2 0 4 7 4 15 0 8 -4 15 -10 15 -5 0
-7 -7 -4 -15z"/>
<path d="M5150 7193 c0 -3 11 -21 25 -39 14 -18 25 -39 25 -48 0 -22 11 -46
22 -46 5 0 6 5 2 11 -3 6 0 15 7 20 11 7 11 9 1 9 -7 0 -10 4 -7 10 10 16 -22
65 -49 78 -14 6 -26 9 -26 5z"/>
<path d="M5890 7192 c0 -5 6 -16 13 -25 11 -16 12 -15 13 8 1 15 -3 25 -12 25
-8 0 -14 -4 -14 -8z"/>
<path d="M5680 7181 c0 -5 5 -13 10 -16 6 -3 10 -2 10 4 0 5 -4 13 -10 16 -5
3 -10 2 -10 -4z"/>
<path d="M5985 7145 c-16 -8 -23 -14 -14 -15 8 0 24 7 35 15 23 18 18 18 -21
0z"/>
<path d="M5010 7140 c0 -5 4 -10 9 -10 6 0 13 5 16 10 3 6 -1 10 -9 10 -9 0
-16 -4 -16 -10z"/>
<path d="M5041 7131 c-7 -5 -16 -28 -18 -52 -4 -33 -1 -45 13 -56 18 -13 81
-18 108 -7 28 11 15 94 -18 116 -15 10 -68 10 -85 -1z"/>
<path d="M4655 7093 c-22 -20 -31 -31 -20 -24 28 15 69 51 64 55 -2 2 -22 -12
-44 -31z"/>
<path d="M5866 7121 c-3 -5 3 -11 15 -14 16 -4 18 -3 8 9 -13 16 -16 17 -23 5z"/>
<path d="M6400 7111 c0 -5 5 -13 10 -16 6 -3 10 -2 10 4 0 5 -4 13 -10 16 -5
3 -10 2 -10 -4z"/>
<path d="M4010 7091 c0 -6 4 -12 8 -15 5 -3 9 1 9 9 0 8 -4 15 -9 15 -4 0 -8
-4 -8 -9z"/>
<path d="M5715 7060 c-3 -5 -1 -10 4 -10 6 0 11 5 11 10 0 6 -2 10 -4 10 -3 0
-8 -4 -11 -10z"/>
<path d="M3815 7010 c3 -5 8 -10 11 -10 2 0 4 5 4 10 0 6 -5 10 -11 10 -5 0
-7 -4 -4 -10z"/>
<path d="M3866 6997 c3 -10 9 -15 12 -12 3 3 0 11 -7 18 -10 9 -11 8 -5 -6z"/>
<path d="M4849 6929 l-24 -20 28 17 c15 9 27 18 27 20 0 8 -8 4 -31 -17z"/>
<path d="M6090 6860 c0 -5 5 -10 11 -10 5 0 7 5 4 10 -3 6 -8 10 -11 10 -2 0
-4 -4 -4 -10z"/>
<path d="M4789 6811 l-24 -20 23 6 c23 5 38 20 29 29 -2 2 -15 -4 -28 -15z"/>
<path d="M4858 6823 c7 -3 16 -2 19 1 4 3 -2 6 -13 5 -11 0 -14 -3 -6 -6z"/>
<path d="M4780 6750 c0 -5 5 -10 10 -10 6 0 10 5 10 10 0 6 -4 10 -10 10 -5 0
-10 -4 -10 -10z"/>
<path d="M4845 6670 c-8 -13 5 -13 25 0 13 8 13 10 -2 10 -9 0 -20 -4 -23 -10z"/>
<path d="M4916 6632 c-3 -5 1 -9 9 -9 8 0 15 4 15 9 0 4 -4 8 -9 8 -6 0 -12
-4 -15 -8z"/>
<path d="M4975 6630 c3 -5 11 -10 16 -10 6 0 7 5 4 10 -3 6 -11 10 -16 10 -6
0 -7 -4 -4 -10z"/>
<path d="M3265 7170 c-3 -5 -1 -10 4 -10 6 0 11 5 11 10 0 6 -2 10 -4 10 -3 0
-8 -4 -11 -10z"/>
<path d="M3265 7130 c-3 -5 1 -10 9 -10 9 0 16 5 16 10 0 6 -4 10 -9 10 -6 0
-13 -4 -16 -10z"/>
<path d="M3285 7090 c-4 -7 -16 -10 -26 -7 -11 3 -19 1 -19 -4 0 -13 47 -11
55 2 4 6 5 13 2 15 -3 3 -8 0 -12 -6z"/>
<path d="M3400 7059 c0 -5 5 -7 10 -4 6 3 10 8 10 11 0 2 -4 4 -10 4 -5 0 -10
-5 -10 -11z"/>
<path d="M3400 7020 c-9 -6 -10 -10 -3 -10 6 0 15 5 18 10 8 12 4 12 -15 0z"/>
<path d="M3565 6820 c3 -5 8 -10 11 -10 2 0 4 5 4 10 0 6 -5 10 -11 10 -5 0
-7 -4 -4 -10z"/>
<path d="M3665 6570 c-3 -5 -1 -10 4 -10 6 0 11 5 11 10 0 6 -2 10 -4 10 -3 0
-8 -4 -11 -10z"/>
<path d="M3300 6481 c0 -5 5 -13 10 -16 6 -3 10 -2 10 4 0 5 -4 13 -10 16 -5
3 -10 2 -10 -4z"/>
<path d="M4405 6610 c-3 -5 -1 -10 4 -10 6 0 11 5 11 10 0 6 -2 10 -4 10 -3 0
-8 -4 -11 -10z"/>
<path d="M3160 6709 c0 -5 5 -7 10 -4 6 3 10 8 10 11 0 2 -4 4 -10 4 -5 0 -10
-5 -10 -11z"/>
<path d="M5860 6439 c0 -5 5 -7 10 -4 6 3 10 8 10 11 0 2 -4 4 -10 4 -5 0 -10
-5 -10 -11z"/>
<path d="M3185 6490 c-3 -5 -1 -10 4 -10 6 0 11 5 11 10 0 6 -2 10 -4 10 -3 0
-8 -4 -11 -10z"/>
<path d="M3250 6421 c0 -5 5 -13 10 -16 6 -3 10 -2 10 4 0 5 -4 13 -10 16 -5
3 -10 2 -10 -4z"/>
<path d="M3300 6390 c0 -5 4 -10 9 -10 6 0 13 5 16 10 3 6 -1 10 -9 10 -9 0
-16 -4 -16 -10z"/>
<path d="M3176 6332 c2 -46 3 -51 27 -72 17 -16 33 -21 69 -19 27 2 53 -3 62
-10 10 -9 16 -10 16 -2 0 18 -43 40 -79 39 -21 -1 -39 5 -46 15 -7 10 -17 17
-24 17 -6 0 -11 11 -11 24 0 14 -4 27 -8 30 -4 2 -7 -8 -6 -22z"/>
<path d="M3090 6340 c0 -5 5 -10 10 -10 6 0 10 5 10 10 0 6 -4 10 -10 10 -5 0
-10 -4 -10 -10z"/>
<path d="M3141 6323 c3 -20 -2 -27 -10 -14 -8 13 -31 8 -31 -7 0 -12 44 -9 52
2 11 15 10 26 -2 26 -5 0 -9 -3 -9 -7z"/>
<path d="M3073 6288 c-2 -16 1 -18 10 -9 7 7 8 14 1 21 -6 6 -10 2 -11 -12z"/>
<path d="M3090 6259 c0 -5 5 -7 10 -4 6 3 10 8 10 11 0 2 -4 4 -10 4 -5 0 -10
-5 -10 -11z"/>
<path d="M3310 6221 c0 -5 5 -13 12 -17 7 -5 5 -11 -7 -21 -17 -12 -17 -13 -2
-13 9 0 17 4 17 9 0 5 6 11 14 13 10 2 7 8 -10 21 -13 10 -24 13 -24 8z"/>
<path d="M3410 6219 c0 -5 5 -7 10 -4 6 3 10 8 10 11 0 2 -4 4 -10 4 -5 0 -10
-5 -10 -11z"/>
<path d="M3457 6207 c3 -5 -4 -11 -16 -14 -12 -3 -21 -12 -21 -19 0 -19 14
-18 31 2 7 8 21 13 30 11 10 -3 19 -1 21 4 2 5 28 13 58 18 55 9 55 9 -26 8
-45 -1 -80 -6 -77 -10z"/>
<path d="M2940 6156 c0 -9 5 -16 10 -16 6 0 10 4 10 9 0 6 -4 13 -10 16 -5 3
-10 -1 -10 -9z"/>
<path d="M2973 6155 c0 -8 7 -15 15 -15 7 0 12 5 10 12 -6 18 -25 21 -25 3z"/>
<path d="M3475 6130 c-3 -6 1 -7 9 -4 18 7 21 14 7 14 -6 0 -13 -4 -16 -10z"/>
<path d="M5050 5310 c0 -5 -8 -10 -17 -10 -13 0 -14 -3 -6 -11 7 -7 19 -9 27
-6 17 7 22 37 6 37 -5 0 -10 -4 -10 -10z"/>
<path d="M4715 4930 c-3 -5 -1 -10 4 -10 6 0 11 5 11 10 0 6 -2 10 -4 10 -3 0
-8 -4 -11 -10z"/>
<path d="M4540 4860 c0 -5 5 -10 10 -10 6 0 10 5 10 10 0 6 -4 10 -10 10 -5 0
-10 -4 -10 -10z"/>
<path d="M5962 4290 c0 -23 4 -30 19 -30 10 0 19 5 19 10 0 6 -4 10 -10 10 -5
0 -10 6 -10 14 0 29 -17 25 -18 -4z"/>
<path d="M5870 4270 c0 -5 5 -10 10 -10 6 0 10 5 10 10 0 6 -4 10 -10 10 -5 0
-10 -4 -10 -10z"/>
<path d="M6266 4241 c-9 -16 -16 -36 -16 -43 0 -7 9 5 21 26 11 21 18 40 15
43 -2 3 -12 -9 -20 -26z"/>
<path d="M5090 4240 c0 -5 5 -10 10 -10 6 0 10 5 10 10 0 6 -4 10 -10 10 -5 0
-10 -4 -10 -10z"/>
<path d="M5950 4231 c0 -14 5 -18 20 -14 16 4 18 8 9 19 -16 20 -29 17 -29 -5z"/>
<path d="M5765 4150 c-3 -5 -1 -10 4 -10 6 0 11 5 11 10 0 6 -2 10 -4 10 -3 0
-8 -4 -11 -10z"/>
<path d="M5050 4026 c0 -2 7 -7 16 -10 8 -3 12 -2 9 4 -6 10 -25 14 -25 6z"/>
<path d="M4917 5519 c-19 -22 -9 -25 18 -6 10 8 14 17 8 20 -5 3 -17 -3 -26
-14z"/>
<path d="M4850 5499 c0 -5 5 -7 10 -4 6 3 10 8 10 11 0 2 -4 4 -10 4 -5 0 -10
-5 -10 -11z"/>
<path d="M4406 3635 c4 -8 10 -15 15 -15 5 0 9 7 9 15 0 8 -7 15 -15 15 -9 0
-12 -6 -9 -15z"/>
<path d="M4280 3620 c-8 -16 -8 -20 4 -20 9 0 14 8 13 20 -1 11 -2 20 -4 20
-1 0 -7 -9 -13 -20z"/>
<path d="M4500 3605 c-10 -12 -10 -15 4 -15 9 0 16 7 16 15 0 8 -2 15 -4 15
-2 0 -9 -7 -16 -15z"/>
<path d="M4550 3610 c0 -5 5 -10 10 -10 6 0 10 5 10 10 0 6 -4 10 -10 10 -5 0
-10 -4 -10 -10z"/>
<path d="M4270 3570 c0 -5 4 -10 9 -10 6 0 13 5 16 10 3 6 -1 10 -9 10 -9 0
-16 -4 -16 -10z"/>
<path d="M4270 3479 c0 -5 5 -7 10 -4 6 3 10 8 10 11 0 2 -4 4 -10 4 -5 0 -10
-5 -10 -11z"/>
<path d="M4955 3320 c-3 -5 -1 -10 4 -10 6 0 11 5 11 10 0 6 -2 10 -4 10 -3 0
-8 -4 -11 -10z"/>
<path d="M5040 3280 c0 -5 5 -10 11 -10 5 0 7 5 4 10 -3 6 -8 10 -11 10 -2 0
-4 -4 -4 -10z"/>
<path d="M4965 3264 c9 -9 19 -13 23 -10 3 4 0 11 -8 16 -24 15 -33 11 -15 -6z"/>
<path d="M5005 3269 c-9 -14 -2 -20 14 -10 8 6 9 11 3 15 -6 3 -14 1 -17 -5z"/>
<path d="M5110 3271 c0 -5 5 -13 10 -16 6 -3 10 -2 10 4 0 5 -4 13 -10 16 -5
3 -10 2 -10 -4z"/>
<path d="M5166 3255 c4 -8 8 -15 10 -15 2 0 4 7 4 15 0 8 -4 15 -10 15 -5 0
-7 -7 -4 -15z"/>
<path d="M5225 3260 c-3 -5 -1 -10 4 -10 6 0 11 5 11 10 0 6 -2 10 -4 10 -3 0
-8 -4 -11 -10z"/>
<path d="M4960 3226 c0 -2 7 -9 15 -16 9 -7 15 -8 15 -2 0 5 -7 12 -15 16 -8
3 -15 4 -15 2z"/>
<path d="M4960 3153 c0 -13 5 -23 10 -23 13 0 13 11 0 30 -8 12 -10 11 -10 -7z"/>
<path d="M4966 3101 c-3 -5 1 -11 9 -14 9 -4 12 -1 8 9 -6 16 -10 17 -17 5z"/>
<path d="M5900 3136 c0 -2 7 -7 16 -10 8 -3 12 -2 9 4 -6 10 -25 14 -25 6z"/>
<path d="M6598 2843 c7 -3 16 -2 19 1 4 3 -2 6 -13 5 -11 0 -14 -3 -6 -6z"/>
<path d="M6607 2809 c7 -7 15 -10 18 -7 3 3 -2 9 -12 12 -14 6 -15 5 -6 -5z"/>
<path d="M6362 2235 l-22 -45 45 0 45 0 -21 43 c-12 23 -22 43 -23 44 -1 2
-12 -18 -24 -42z"/>
<path d="M3998 2224 l-16 -39 30 -3 c16 -2 32 -1 35 1 2 3 -4 22 -15 42 l-19
38 -15 -39z"/>
<path d="M5470 2263 c-73 -27 -64 -109 13 -128 58 -15 114 32 100 84 -9 36
-70 60 -113 44z"/>
<path d="M7910 2245 c0 -23 4 -25 44 -25 53 0 76 8 76 25 0 17 -23 25 -76 25
-40 0 -44 -2 -44 -25z"/>
</g>
</svg>
